<svg width="11" height="7" viewBox="0 0 11 7" fill="none" xmlns="http://www.w3.org/2000/svg">
<path d="M5.17654 4.14843L8.83354 0.491428C8.90009 0.41834 8.98064 0.359349 9.0704 0.317945C9.16016 0.276542 9.25732 0.253568 9.35612 0.250384C9.45492 0.247199 9.55336 0.263869 9.6456 0.299406C9.73784 0.334944 9.82202 0.388626 9.89314 0.457276C9.96427 0.525926 10.0209 0.608148 10.0597 0.699074C10.0985 0.790001 10.1186 0.887784 10.1189 0.986635C10.1192 1.08549 10.0997 1.1834 10.0615 1.27457C10.0233 1.36574 9.96722 1.44832 9.89654 1.51743L9.87854 1.53543L5.69954 5.71543C5.56095 5.85399 5.37301 5.93182 5.17704 5.93182C4.98107 5.93182 4.79312 5.85399 4.65454 5.71543L0.475536 1.53643C0.405739 1.46899 0.349907 1.38847 0.311228 1.29946C0.272549 1.21045 0.251781 1.11469 0.25011 1.01766C0.248438 0.920619 0.265896 0.824202 0.301486 0.733912C0.337077 0.643622 0.390102 0.561225 0.457536 0.491428C0.52497 0.42163 0.605491 0.365798 0.694502 0.327119C0.783513 0.288441 0.879271 0.267673 0.976308 0.266001C1.07335 0.26433 1.16976 0.281788 1.26005 0.317378C1.35034 0.352968 1.43274 0.405994 1.50254 0.473428L1.52054 0.491428L5.17654 4.14843Z" fill="currentColor" stroke="currentColor" stroke-width="0.5"/>
</svg>
