<svg width="19" height="19" viewBox="0 0 19 19" fill="none" xmlns="http://www.w3.org/2000/svg">
<path d="M18.8227 9.41028C18.8197 11.7105 17.9758 13.9302 16.4498 15.6513C14.9239 17.3725 12.8212 18.4762 10.538 18.7547C10.4871 18.7604 10.4356 18.7554 10.3869 18.7398C10.3382 18.7242 10.2933 18.6984 10.2553 18.6642C10.2172 18.63 10.1868 18.5881 10.1662 18.5413C10.1455 18.4945 10.1349 18.4439 10.1353 18.3927V11.5821H12.3071C12.4064 11.5824 12.5046 11.5622 12.5957 11.5228C12.6868 11.4835 12.7689 11.4258 12.8368 11.3534C12.9047 11.281 12.9569 11.1955 12.9904 11.102C13.0238 11.0086 13.0377 10.9092 13.0311 10.8102C13.0151 10.6241 12.9292 10.4509 12.7907 10.3254C12.6522 10.2 12.4713 10.1317 12.2845 10.1342H10.1353V7.96238C10.1353 7.57837 10.2878 7.21009 10.5594 6.93856C10.8309 6.66702 11.1992 6.51448 11.5832 6.51448H13.0311C13.1303 6.51469 13.2286 6.4945 13.3197 6.45516C13.4108 6.41582 13.4928 6.35816 13.5607 6.28577C13.6286 6.21338 13.6809 6.1278 13.7143 6.03436C13.7478 5.94091 13.7616 5.84159 13.755 5.74256C13.739 5.55609 13.6529 5.38262 13.514 5.25716C13.3751 5.13171 13.1938 5.0636 13.0066 5.06657H11.5832C10.8152 5.06657 10.0786 5.37167 9.53553 5.91474C8.99247 6.4578 8.68737 7.19436 8.68737 7.96238V10.1342H6.51552C6.41627 10.134 6.31804 10.1542 6.22693 10.1935C6.13582 10.2329 6.05377 10.2905 5.98588 10.3629C5.91798 10.4353 5.8657 10.5209 5.83227 10.6144C5.79885 10.7078 5.78499 10.8071 5.79157 10.9061C5.80758 11.0926 5.89372 11.2661 6.03261 11.3915C6.17151 11.517 6.35281 11.5851 6.53995 11.5821H8.68737V18.3945C8.68768 18.4456 8.67718 18.4962 8.65655 18.5429C8.63592 18.5896 8.60564 18.6315 8.56769 18.6656C8.52974 18.6998 8.48498 18.7256 8.43636 18.7413C8.38774 18.7569 8.33635 18.7621 8.28558 18.7565C5.9412 18.471 3.78945 17.3157 2.25622 15.5194C0.722991 13.7231 -0.0799617 11.4166 0.00629346 9.05645C0.187281 4.16978 4.14548 0.197098 9.03577 0.00706105C10.3019 -0.0419812 11.5648 0.164838 12.7492 0.615148C13.9335 1.06546 15.0148 1.75001 15.9285 2.62785C16.8421 3.50569 17.5694 4.5588 18.0667 5.72417C18.5639 6.88954 18.8211 8.14324 18.8227 9.41028Z" fill="white"/>
</svg>
