<svg width="1494" height="6010" viewBox="0 0 1494 6010" fill="none" xmlns="http://www.w3.org/2000/svg">
<path d="M-1243.4 5945.92C-1077.71 5837.36 -911.972 5725.99 -775.78 5582.41C-632.572 5431.42 -522.918 5239.17 -510.108 5031.47C-489.652 4699.67 -711.048 4405.49 -793.484 4083.45C-933.617 3535.89 -605.999 2908.94 -76.4717 2711.35C153.471 2625.55 420.18 2607.44 602.092 2442.7C769.631 2290.98 822.843 2047.87 817.78 1821.91C812.734 1595.92 759.063 1373.22 752.777 1147.27C746.507 921.317 796.849 678.105 961.906 523.683C1155.69 342.366 1447.28 330.829 1711.91 310.628C1969.72 290.937 2260.15 231.982 2399.97 17.7886" stroke="#EAEAEA" stroke-width="1.699" stroke-miterlimit="10"/>
<path d="M2403.87 34.6257C2251.36 232.525 1959.71 287.08 1700.41 311.903C1430.37 337.829 1137.72 362.465 946.038 553.127C781.167 717.114 734.07 968.872 742.65 1202.69C750.805 1425.26 802.982 1644.77 807.756 1867.52C812.53 2090.28 759.334 2329.81 593.699 2478.74C411.141 2642.27 144.296 2654.33 -85.7484 2737.55C-606.475 2925.93 -929.336 3537.59 -799.991 4075.05C-722.925 4395.33 -508.358 4690.12 -523.887 5020.24C-533.792 5230.95 -636.717 5428.66 -781.217 5583.05C-921.147 5732.56 -1096.16 5843.03 -1269.51 5950.31" stroke="#EAEAEA" stroke-width="1.699" stroke-miterlimit="10"/>
<path d="M2413.48 42.9338C2250.38 231.54 1953.19 282.986 1688.91 313.228C1413.45 344.88 1119.78 382.683 930.185 582.604C765.535 756.208 721.616 1016.44 732.541 1258.13C742.446 1477.31 793.246 1693.65 797.731 1913.18C802.217 2132.7 749.038 2368.66 585.305 2514.79C402.102 2677.1 135.138 2683.13 -95.0253 2763.75C-606.883 2943.01 -925.157 3539.37 -806.499 4066.68C-734.818 4385.24 -526.928 4680.61 -537.649 5009.01C-544.632 5222.76 -640.846 5425.91 -786.654 5583.7C-927.994 5736.67 -1108.92 5844.88 -1287.13 5949.08" stroke="#EAEAEA" stroke-width="1.699" stroke-miterlimit="10"/>
<path d="M2423.22 51.072C2249.56 230.503 1946.71 278.857 1677.41 314.519C1396.54 351.88 1101.87 402.952 914.317 612.065C749.904 795.353 709.077 1063.98 722.415 1313.57C733.934 1529.36 783.511 1742.51 787.707 1958.81C791.904 2175.11 739.133 2407.94 576.912 2550.85C393.488 2712.42 125.997 2711.98 -104.302 2789.95C-607.206 2960.22 -921.113 3541.24 -813.006 4058.28C-746.745 4375.18 -545.397 4671.11 -551.428 4997.78C-555.421 5214.57 -644.992 5423.18 -792.091 5584.34C-934.841 5740.8 -1121.73 5846.75 -1304.78 5947.88" stroke="#EAEAEA" stroke-width="1.699" stroke-miterlimit="10"/>
<path d="M2432.95 59.2441C2248.73 229.501 1940.26 274.762 1665.9 315.844C1379.62 358.931 1084.01 423.323 898.449 641.543C734.308 834.566 696.488 1111.52 712.272 1369.02C725.304 1581.41 773.742 1791.39 777.667 2004.46C781.574 2217.54 728.922 2446.92 568.503 2586.91C384.569 2747.42 116.892 2740.86 -113.595 2816.16C-607.477 2977.55 -917.222 3543.2 -819.53 4049.91C-758.739 4365.19 -563.779 4661.65 -565.206 4986.55C-566.175 5206.42 -649.137 5420.42 -797.545 5584.99C-941.705 5744.93 -1134.54 5848.59 -1322.43 5946.65" stroke="#EAEAEA" stroke-width="1.699" stroke-miterlimit="10"/>
<path d="M2442.75 67.3486C2247.96 228.465 1933.8 270.651 1654.38 317.153C1362.68 365.948 1066.17 443.728 882.563 671.02C718.728 873.813 683.814 1159.06 702.129 1424.48C716.553 1633.47 763.973 1840.27 767.608 2050.13C771.244 2259.98 718.694 2485.91 560.076 2622.98C375.598 2782.4 107.785 2769.76 -122.906 2842.39C-607.715 2995.02 -913.484 3545.27 -826.071 4041.57C-770.819 4355.29 -582.078 4652.25 -579.002 4975.37C-576.879 5198.31 -653.3 5417.72 -802.999 5585.68C-948.552 5749.09 -1147.35 5850.49 -1340.1 5945.45" stroke="#EAEAEA" stroke-width="1.699" stroke-miterlimit="10"/>
<path d="M2452.73 75.3506C2247.37 227.428 1927.45 266.505 1642.88 318.461C1345.76 372.981 1048.39 464.184 866.694 700.481C703.216 913.094 671.088 1206.56 692.003 1479.9C707.736 1685.49 754.238 1889.14 757.585 2095.75C760.932 2302.38 708.484 2524.83 551.683 2659.02C366.679 2817.35 98.7292 2798.68 -132.182 2868.58C-607.834 3012.57 -909.865 3547.36 -832.578 4033.16C-782.916 4345.36 -600.24 4642.79 -592.781 4964.11C-587.531 5190.14 -657.445 5414.94 -808.452 5586.3C-955.433 5753.21 -1160.21 5852.31 -1357.82 5944.19" stroke="#EAEAEA" stroke-width="1.699" stroke-miterlimit="10"/>
<path d="M2462.72 83.4038C2246.77 226.392 1921.09 262.394 1631.38 319.786C1328.86 380.015 1030.65 484.708 850.825 729.975C687.721 952.459 658.311 1254.12 681.876 1535.37C698.815 1737.58 744.485 1938.03 747.543 2141.44C750.601 2344.84 698.238 2563.81 543.272 2695.12C357.707 2852.35 89.69 2827.7 -141.476 2894.82C-607.92 3030.29 -906.434 3549.59 -839.103 4024.83C-795.082 4335.58 -618.334 4633.43 -606.56 4952.94C-598.116 5182.07 -661.591 5412.25 -813.889 5587.01C-962.28 5757.4 -1173.02 5854.21 -1375.49 5943" stroke="#EAEAEA" stroke-width="1.699" stroke-miterlimit="10"/>
<path d="M2472.79 91.4231C2246.25 225.355 1914.76 258.248 1619.86 321.094C1311.92 387.049 1012.93 505.232 834.94 759.453C672.244 991.825 645.433 1301.64 671.734 1590.82C689.811 1789.64 734.733 1986.91 737.502 2187.09C740.289 2387.27 687.976 2602.75 534.862 2731.18C348.737 2887.3 80.6855 2856.7 -150.769 2921.02C-607.953 3048.11 -903.155 3551.84 -845.626 4016.44C-807.331 4325.77 -636.327 4624.02 -620.339 4941.7C-608.667 5173.93 -665.736 5409.5 -819.343 5587.64C-969.144 5761.51 -1185.87 5856.01 -1393.2 5941.73" stroke="#EAEAEA" stroke-width="1.699" stroke-miterlimit="10"/>
<path d="M2483.04 99.4087C2245.87 224.319 1908.47 254.086 1608.36 322.419C1294.99 394.1 995.274 525.824 819.071 788.931C656.816 1031.23 632.504 1349.16 661.607 1646.28C680.755 1841.72 724.98 2035.79 727.478 2232.74C729.975 2429.69 677.731 2641.67 526.469 2767.25C339.766 2922.25 71.7145 2885.77 -160.029 2947.26C-607.886 3066.07 -900.012 3554.19 -852.117 4008.08C-819.632 4316.04 -654.2 4614.62 -634.101 4930.48C-619.133 5165.84 -669.865 5406.76 -824.763 5588.3C-975.991 5765.68 -1198.73 5857.88 -1410.92 5940.49" stroke="#EAEAEA" stroke-width="1.699" stroke-miterlimit="10"/>
<path d="M2493.38 107.394C2245.55 223.266 1902.23 249.906 1596.84 323.728C1278.06 401.117 977.638 546.416 803.185 818.409C641.406 1070.64 619.472 1396.68 651.465 1701.72C671.598 1893.76 715.211 2084.67 717.42 2278.39C719.628 2472.11 667.435 2680.58 518.042 2803.3C330.744 2957.16 62.7269 2914.87 -169.34 2973.45C-607.818 3084.14 -897.106 3556.57 -858.675 3999.7C-832.086 4306.34 -672.057 4605.23 -647.914 4919.27C-629.582 5157.74 -674.045 5404.03 -830.251 5588.96C-982.906 5769.84 -1211.66 5859.73 -1428.71 5939.25" stroke="#EAEAEA" stroke-width="1.699" stroke-miterlimit="10"/>
<path d="M2503.73 115.464C2245.21 222.246 1895.98 245.743 1585.34 325.053C1261.15 408.168 960.054 567.041 787.317 847.886C626.065 1110.08 606.39 1444.2 641.338 1757.17C662.406 1945.83 705.476 2133.55 707.396 2324.05C709.316 2514.54 657.173 2719.47 509.649 2839.37C321.757 2992.08 53.8072 2944.05 -178.616 2999.67C-607.665 3102.36 -894.337 3559.02 -865.182 3991.33C-844.59 4296.67 -689.777 4595.83 -661.676 4908.04C-639.946 5149.62 -678.173 5401.28 -835.67 5589.61C-989.736 5773.98 -1224.49 5861.55 -1446.41 5937.96" stroke="#EAEAEA" stroke-width="1.699" stroke-miterlimit="10"/>
<path d="M2514.25 123.517C2244.99 221.227 1889.78 241.547 1573.83 326.361C1244.23 415.185 942.503 587.667 771.448 877.364C610.739 1149.54 593.223 1491.76 631.195 1812.63C653.129 1997.92 695.706 2182.43 697.354 2369.7C699.003 2556.96 646.877 2758.36 501.239 2875.44C312.735 3026.99 44.8874 2973.27 -187.91 3025.9C-607.478 3120.74 -891.789 3561.53 -871.706 3982.97C-857.214 4287.05 -707.43 4586.43 -675.472 4896.84C-650.276 5141.53 -682.336 5398.56 -841.141 5590.29C-996.634 5778.16 -1237.42 5863.4 -1464.2 5936.7" stroke="#EAEAEA" stroke-width="1.699" stroke-miterlimit="10"/>
<path d="M2524.83 131.605C2244.8 220.208 1883.6 237.317 1562.32 327.669C1227.29 422.219 924.97 608.327 755.562 906.825C595.432 1188.99 579.937 1539.28 621.053 1868.07C643.802 2050 685.937 2231.3 687.297 2415.35C688.656 2599.4 636.548 2797.23 492.812 2911.49C303.679 3061.85 35.9677 3002.56 -197.22 3052.1C-607.274 3139.23 -889.444 3564.03 -878.247 3974.59C-869.973 4277.44 -725.049 4577.02 -689.268 4885.61C-660.538 5133.41 -686.498 5395.82 -846.595 5590.93C-1003.5 5782.33 -1250.33 5865.22 -1482 5935.41" stroke="#EAEAEA" stroke-width="1.699" stroke-miterlimit="10"/>
<path d="M2535.4 139.777C2244.58 219.222 1877.4 233.12 1550.81 328.978C1210.37 429.236 907.487 628.987 739.694 936.302C580.175 1228.48 566.583 1586.85 610.927 1923.51C634.441 2102.07 676.202 2280.16 677.272 2460.99C678.343 2641.81 626.235 2836.07 484.419 2947.54C294.658 3096.72 27.1161 3031.9 -206.496 3078.3C-606.985 3157.85 -887.286 3566.58 -884.754 3966.2C-882.835 4267.84 -742.548 4567.58 -703.046 4874.38C-670.731 5125.27 -690.644 5393.07 -852.049 5591.58C-1010.38 5786.46 -1263.22 5867.02 -1499.74 5934.1" stroke="#EAEAEA" stroke-width="1.699" stroke-miterlimit="10"/>
<path d="M2546.12 147.966C2244.45 218.219 1871.24 228.889 1539.31 330.286C1193.46 436.269 890.021 649.647 723.842 965.763C564.969 1267.96 553.143 1634.4 600.817 1978.94C625.062 2154.15 666.467 2329.04 667.265 2506.64C668.047 2684.23 615.939 2874.91 476.043 2983.61C285.619 3131.56 18.2983 3061.34 -215.756 3104.52C-606.645 3176.62 -885.298 3569.14 -891.245 3957.82C-895.832 4258.26 -759.963 4558.15 -716.791 4863.15C-680.84 5117.13 -694.755 5390.32 -857.451 5592.23C-1017.19 5790.62 -1276.1 5868.82 -1517.5 5932.79" stroke="#EAEAEA" stroke-width="1.699" stroke-miterlimit="10"/>
<path d="M2556.91 156.206C2244.36 217.251 1865.11 224.642 1527.81 331.611C1176.54 443.32 872.59 670.341 707.973 995.257C549.779 1307.48 539.585 1682.01 590.691 2034.42C615.616 2206.27 656.732 2377.94 657.224 2552.31C657.734 2726.67 605.608 2913.75 467.633 3019.68C276.546 3166.41 9.44625 3090.87 -225.05 3130.75C-606.322 3195.56 -883.565 3571.72 -897.769 3949.48C-909.016 4248.71 -777.344 4548.73 -730.57 4851.97C-690.916 5109.03 -698.901 5387.61 -862.905 5592.92C-1024.07 5794.83 -1289.03 5870.69 -1535.3 5931.52" stroke="#EAEAEA" stroke-width="1.699" stroke-miterlimit="10"/>
<path d="M2567.72 164.497C2244.24 216.283 1858.94 220.394 1516.29 332.919C1159.6 450.337 855.174 691.035 692.087 1024.72C534.59 1346.98 525.891 1729.62 580.548 2089.86C606.118 2258.38 646.962 2426.8 647.183 2597.94C647.404 2769.08 595.245 2952.56 459.24 3055.74C267.473 3201.21 0.645213 3120.49 -234.327 3156.95C-605.966 3214.61 -882.019 3574.25 -904.276 3941.09C-922.354 4239.11 -794.657 4539.24 -744.349 4840.72C-700.94 5100.84 -703.047 5384.85 -868.342 5593.55C-1030.94 5798.96 -1301.96 5872.46 -1553.11 5930.17" stroke="#EAEAEA" stroke-width="1.699" stroke-miterlimit="10"/>
<path d="M2578.59 172.839C2244.16 215.314 1852.81 216.13 1504.79 334.227C1142.7 457.371 837.794 711.711 676.219 1054.2C519.435 1386.5 512.113 1777.24 570.422 2145.29C596.587 2310.49 637.21 2475.66 637.159 2643.59C637.091 2811.51 584.898 2991.36 450.847 3091.81C258.384 3236 -8.15536 3150.2 -243.603 3183.16C-605.575 3233.83 -880.694 3576.79 -910.783 3932.71C-935.878 4229.49 -811.901 4529.76 -758.111 4829.49C-710.879 5092.65 -707.175 5382.09 -873.779 5594.2C-1037.8 5803.12 -1314.89 5874.26 -1570.91 5928.83" stroke="#EAEAEA" stroke-width="1.699" stroke-miterlimit="10"/>
<path d="M2589.48 181.232C2244.07 214.38 1846.68 211.865 1493.29 335.536C1125.77 464.388 820.447 732.405 660.35 1083.67C504.314 1426.02 498.198 1824.91 560.296 2200.75C587.039 2362.63 627.475 2524.54 627.118 2689.25C626.778 2853.93 574.534 3030.15 442.437 3127.86C249.26 3270.75 -16.9562 3180.02 -252.896 3209.36C-605.201 3253.18 -879.59 3579.27 -917.307 3924.33C-949.605 4219.86 -829.112 4520.26 -771.89 4818.28C-720.784 5084.46 -711.321 5379.38 -879.216 5594.86C-1044.66 5807.3 -1327.82 5876.06 -1588.74 5927.49" stroke="#EAEAEA" stroke-width="1.699" stroke-miterlimit="10"/>
<path d="M2600.4 189.677C2243.99 213.446 1840.53 207.601 1481.77 336.861C1108.84 471.439 803.101 753.116 644.465 1113.15C489.193 1465.54 484.147 1872.6 550.136 2256.2C577.422 2414.77 617.689 2573.44 617.06 2734.9C616.431 2896.37 564.136 3068.92 434.01 3163.93C240.103 3305.51 -25.7909 3209.97 -262.207 3235.59C-604.861 3272.7 -878.706 3581.7 -923.848 3915.98C-963.571 4210.16 -846.289 4510.74 -785.703 4807.07C-730.655 5076.26 -715.5 5376.64 -884.704 5595.52C-1051.56 5811.48 -1340.82 5877.86 -1606.59 5926.16" stroke="#EAEAEA" stroke-width="1.699" stroke-miterlimit="10"/>
<path d="M2611.36 198.171C2243.9 212.511 1834.39 203.319 1470.26 338.169C1091.91 478.472 785.788 773.809 628.596 1142.63C474.123 1505.08 469.961 1920.33 540.01 2311.64C567.806 2466.9 607.936 2622.3 607.019 2780.55C606.102 2938.79 553.738 3107.68 425.6 3199.98C230.945 3340.2 -34.5915 3240.04 -271.5 3261.79C-604.487 3292.34 -878.009 3584.02 -930.372 3907.58C-977.758 4200.37 -863.415 4501.18 -799.481 4795.84C-740.441 5068 -719.645 5373.89 -890.14 5596.17C-1058.43 5815.64 -1353.76 5879.65 -1624.41 5924.79" stroke="#EAEAEA" stroke-width="1.699" stroke-miterlimit="10"/>
<path d="M2622.34 206.717C2243.8 211.61 1828.26 199.055 1458.76 339.494C1075.01 485.506 768.492 794.52 612.728 1172.11C459.07 1544.6 455.638 1968.09 529.884 2367.1C558.156 2519.07 598.201 2671.19 596.995 2826.2C595.789 2981.22 543.358 3146.43 417.207 3236.05C221.771 3374.89 -43.3922 3270.29 -280.777 3288.01C-604.13 3312.15 -877.482 3586.25 -936.879 3899.22C-992.165 4190.52 -880.456 4491.63 -813.26 4784.62C-750.159 5059.74 -723.791 5371.15 -895.594 5596.83C-1065.31 5819.84 -1366.73 5881.43 -1642.25 5923.43" stroke="#EAEAEA" stroke-width="1.699" stroke-miterlimit="10"/>
<path d="M2633.33 216.894C2243.72 212.307 1822.13 196.353 1447.26 342.399C1058.09 494.137 751.213 816.811 596.859 1203.18C444.034 1585.73 441.179 2017.49 519.758 2424.15C548.488 2572.85 588.449 2721.66 586.971 2873.45C585.492 3025.24 532.976 3186.75 408.813 3273.72C212.596 3411.15 -52.1933 3302.28 -290.053 3315.82C-603.808 3333.69 -877.16 3589.95 -943.387 3892.44C-1006.81 4182.12 -897.463 4483.63 -827.022 4775.01C-759.81 5053.06 -727.92 5370.01 -901.014 5599.09C-1072.14 5825.62 -1379.66 5884.81 -1660.08 5923.67" stroke="#EAEAEA" stroke-width="1.699" stroke-miterlimit="10"/>
<path d="M2644.34 229.144C2243.6 215.025 1815.98 195.691 1435.74 347.327C1041.15 504.773 734.563 841.362 580.973 1236.26C429.609 1629.09 426.517 2068.94 509.615 2483.21C538.787 2628.64 578.696 2774.16 576.912 2922.72C575.145 3071.28 522.527 3229.09 400.386 3313.39C203.37 3449.38 -61.0623 3336.43 -299.364 3345.65C-603.553 3357.41 -877.024 3595.53 -949.928 3887.69C-1021.76 4175.6 -914.47 4477.61 -840.818 4767.39C-769.426 5048.34 -732.082 5370.9 -906.485 5603.35C-1079.04 5833.4 -1392.64 5890.2 -1677.93 5925.89" stroke="#EAEAEA" stroke-width="1.699" stroke-miterlimit="10"/>
<path d="M2655.45 241.887C2243.56 218.22 1809.86 195.453 1424.24 352.712C1024.22 515.884 717.012 866.015 565.104 1269.82C414.301 1672.58 411.718 2120.91 499.489 2542.72C529.068 2684.9 568.944 2827.1 566.888 2972.44C564.832 3117.77 512.01 3271.66 391.993 3353.52C193.957 3487.74 -69.9142 3371.24 -308.641 3375.93C-603.332 3381.71 -877.024 3601.37 -956.436 3883.39C-1036.95 4169.36 -931.392 4472.04 -854.598 4760.26C-778.975 5044.08 -736.228 5372.24 -911.922 5608.09C-1085.9 5841.66 -1405.62 5896.06 -1695.81 5928.59" stroke="#EAEAEA" stroke-width="1.699" stroke-miterlimit="10"/>
<path d="M2666.46 254.935C2243.43 221.685 1803.69 195.504 1412.74 358.37C1007.32 527.251 699.461 890.939 549.236 1303.63C399.01 1716.31 396.733 2173.21 489.363 2602.51C519.333 2741.46 559.192 2880.32 556.864 3022.44C554.519 3164.56 501.715 3314.87 383.6 3393.92C184.919 3526.92 -78.8169 3406.53 -317.917 3406.48C-603.179 3406.43 -877.177 3607.28 -962.943 3879.34C-1052.43 4163.18 -948.28 4466.69 -868.359 4753.36C-788.438 5040.03 -740.357 5373.82 -917.359 5613.07C-1092.76 5850.17 -1418.6 5902.14 -1713.65 5931.53" stroke="#EAEAEA" stroke-width="1.699" stroke-miterlimit="10"/>
<path d="M2646.43 267.066C2224.99 230.622 1785.29 212.137 1399.91 380.202C1003.77 552.957 705.255 913.382 557.952 1321.36C410.648 1729.34 411.99 2178.88 483.569 2599.56C507.134 2738.04 532.891 2872.79 521.389 3011.61C509.887 3150.44 450.184 3301.02 332.664 3384.73C141.017 3521.25 -112.083 3410.96 -338.56 3416.3C-609.398 3422.69 -872.454 3618.97 -946.564 3887.28C-1025.89 4174.48 -918.735 4488.3 -841.77 4782.33C-768.169 5063.43 -720.512 5388.55 -893.606 5622.42C-1065 5854.01 -1382.83 5906.61 -1671 5933.96" stroke="#EAEAEA" stroke-width="1.699" stroke-miterlimit="10"/>
<path d="M2626.47 279.282C2206.63 239.627 1766.91 228.77 1387.06 402.102C1000.22 578.628 711.032 935.894 566.65 1339.15C422.269 1742.41 426.806 2185.27 477.776 2596.67C494.919 2735 506.591 2865.33 485.931 3000.86C465.271 3136.39 398.704 3287.11 281.728 3375.61C97.0468 3515.33 -145.333 3415.47 -359.22 3426.17C-615.616 3439.01 -867.442 3631.04 -930.203 3895.26C-999.335 4186.29 -889.155 4509.83 -815.181 4811.35C-747.611 5086.74 -700.685 5403.31 -869.854 5631.83C-1037.24 5857.92 -1347.12 5911.15 -1628.39 5936.48" stroke="#EAEAEA" stroke-width="1.699" stroke-miterlimit="10"/>
<path d="M2606.5 291.582C2188.24 248.717 1748.56 245.421 1374.24 424.087C996.667 604.3 716.825 958.491 575.349 1357.03C433.874 1755.56 441.077 2192.39 471.965 2593.85C482.618 2732.33 480.256 2857.92 450.439 2990.17C420.621 3122.41 347.225 3273.12 230.775 3366.54C52.9748 3509.17 -178.565 3420.04 -379.897 3436.11C-621.817 3455.43 -862.09 3643.51 -913.859 3903.3C-972.712 4198.57 -859.524 4531.29 -788.625 4840.4C-726.799 5109.96 -680.875 5418.13 -846.136 5641.26C-1009.51 5861.84 -1311.42 5915.7 -1585.8 5939.01" stroke="#EAEAEA" stroke-width="1.699" stroke-miterlimit="10"/>
<path d="M2586.54 303.951C2169.88 257.874 1730.21 262.071 1361.41 446.14C993.116 629.955 722.619 981.173 584.065 1374.97C445.512 1768.78 454.686 2200.15 466.188 2591.09C470.283 2730 453.973 2850.6 414.981 2979.55C375.988 3108.51 295.779 3259.09 179.856 3357.55C8.83453 3502.8 -211.73 3424.69 -400.54 3446.13C-627.934 3471.94 -856.313 3656.37 -897.497 3911.44C-945.919 4211.38 -829.775 4552.74 -762.053 4869.57C-705.697 5133.19 -661.047 5433.05 -822.418 5650.82C-981.802 5865.92 -1275.73 5920.37 -1543.22 5941.68" stroke="#EAEAEA" stroke-width="1.699" stroke-miterlimit="10"/>
<path d="M2566.54 316.371C2151.48 267.1 1711.84 278.704 1348.56 468.261C989.532 655.593 728.395 1003.91 592.764 1392.98C457.133 1782.06 467.497 2208.55 460.395 2588.41C457.779 2728.02 427.672 2843.35 379.523 2969C331.373 3094.66 244.316 3244.99 128.937 3348.61C-35.4412 3496.22 -244.826 3429.42 -421.182 3456.19C-633.999 3488.51 -850.129 3669.54 -881.119 3919.61C-918.921 4224.62 -799.906 4574.12 -735.446 4898.78C-684.306 5156.36 -641.186 5448.01 -798.649 5660.42C-954.023 5870.01 -1239.98 5925.08 -1500.57 5944.39" stroke="#EAEAEA" stroke-width="1.699" stroke-miterlimit="10"/>
<path d="M2546.65 328.842C2133.15 276.359 1693.53 295.303 1335.74 490.416C985.964 681.163 734.172 1026.67 601.48 1411.02C468.771 1795.37 479.424 2217.45 454.601 2585.78C445.121 2726.33 401.354 2836.14 344.047 2958.5C286.74 3080.87 192.819 3230.82 77.9838 3339.74C-79.8534 3489.46 -277.906 3434.22 -441.859 3466.33C-640.014 3505.16 -843.537 3683.03 -864.775 3927.87C-891.704 4238.28 -769.97 4595.47 -708.891 4928.07C-662.712 5179.52 -621.393 5463.05 -774.931 5670.09C-926.295 5874.19 -1204.3 5929.85 -1458.03 5947.18" stroke="#EAEAEA" stroke-width="1.699" stroke-miterlimit="10"/>
<path d="M2526.63 341.329C2114.73 285.636 1675.15 311.851 1322.89 512.605C982.345 706.682 739.948 1049.47 610.162 1429.11C480.375 1808.74 490.399 2226.78 448.791 2583.18C432.242 2724.91 375.037 2828.97 308.572 2948.04C242.107 3067.1 141.289 3216.55 27.0477 3330.89C-124.401 3482.47 -310.9 3439.03 -462.519 3476.49C-645.943 3521.82 -836.469 3696.75 -848.413 3936.14C-864.18 4252.26 -739.881 4616.78 -682.319 4957.36C-640.863 5202.61 -601.565 5478.1 -751.213 5679.78C-898.568 5878.37 -1168.59 5934.63 -1415.4 5950" stroke="#EAEAEA" stroke-width="1.699" stroke-miterlimit="10"/>
<path d="M2506.72 353.868C2096.4 294.963 1656.8 328.349 1310.08 534.828C978.743 732.15 745.759 1072.31 618.895 1447.23C492.031 1822.13 500.424 2236.38 443.031 2580.59C419.177 2723.65 348.771 2821.8 273.131 2937.59C197.509 3053.38 89.7242 3202.17 -23.854 3322.07C-169.034 3475.31 -343.759 3443.84 -483.145 3486.67C-651.754 3538.47 -828.925 3710.65 -832.017 3944.42C-836.282 4266.51 -709.622 4637.98 -655.695 4986.67C-618.742 5225.65 -581.687 5493.17 -727.427 5689.46C-870.789 5882.55 -1132.86 5939.4 -1372.79 5952.82" stroke="#EAEAEA" stroke-width="1.699" stroke-miterlimit="10"/>
<path d="M2486.78 366.423C2078.03 304.308 1638.4 344.795 1297.24 557.085C975.09 757.55 751.535 1095.19 627.593 1465.37C503.651 1835.55 509.445 2246.2 437.22 2578.05C405.772 2722.55 322.436 2814.68 237.656 2927.17C152.859 3039.66 38.0573 3187.72 -74.8073 3313.27C-213.87 3467.98 -376.567 3448.65 -503.822 3496.88C-657.48 3555.12 -820.991 3724.72 -815.69 3952.74C-808.062 4281.04 -679.261 4659.17 -629.157 5016.03C-596.485 5248.67 -561.911 5508.28 -703.726 5699.21C-843.078 5886.82 -1097.2 5944.24 -1330.25 5955.71" stroke="#EAEAEA" stroke-width="1.699" stroke-miterlimit="10"/>
<path d="M2466.83 378.996C2059.66 313.67 1620 361.174 1284.41 579.342C971.404 782.848 757.33 1118.06 636.293 1483.52C515.256 1848.97 517.499 2256.05 431.428 2575.5C392.079 2721.53 296.136 2807.56 202.182 2916.76C108.227 3025.95 -13.6935 3173.14 -125.743 3304.49C-258.825 3460.49 -409.255 3453.39 -524.481 3507.11C-663.068 3571.72 -812.597 3738.89 -799.328 3961.08C-779.348 4295.74 -648.695 4680.32 -602.584 5045.4C-574.007 5271.68 -542.083 5523.42 -680.007 5708.96C-815.35 5891.08 -1061.52 5949.07 -1287.65 5958.62" stroke="#EAEAEA" stroke-width="1.699" stroke-miterlimit="10"/>
<path d="M2446.87 391.586C2041.28 323.048 1601.55 377.467 1271.58 601.633C967.683 808.096 763.123 1140.96 645.008 1501.7C526.894 1862.43 524.668 2265.89 425.634 2573C378.045 2720.56 269.835 2800.5 166.723 2906.4C63.6105 3012.31 -65.5305 3158.49 -176.662 3295.75C-303.917 3452.91 -441.791 3458.06 -545.124 3517.37C-668.523 3588.19 -803.763 3753.14 -782.95 3969.46C-750.143 4310.55 -617.909 4701.42 -575.978 5074.81C-551.292 5294.66 -522.222 5538.57 -656.239 5718.77C-787.589 5895.38 -1025.77 5953.93 -1245.01 5961.57" stroke="#EAEAEA" stroke-width="1.699" stroke-miterlimit="10"/>
<path d="M2426.87 404.209C2022.86 332.46 1583.03 393.743 1258.74 623.975C963.893 833.309 768.899 1163.92 653.707 1519.94C538.515 1875.95 530.988 2275.64 419.84 2570.55C363.671 2719.57 243.534 2793.46 131.247 2896.08C18.9774 2998.7 -117.486 3143.8 -227.615 3287.06C-349.196 3445.22 -474.242 3462.61 -565.801 3527.69C-673.909 3604.51 -794.555 3767.45 -766.606 3977.87C-720.444 4325.45 -586.937 4722.52 -549.423 5104.24C-528.458 5317.63 -502.412 5553.76 -632.521 5728.59C-759.861 5899.69 -990.076 5958.8 -1202.42 5964.56" stroke="#EAEAEA" stroke-width="1.699" stroke-miterlimit="10"/>
<path d="M2406.97 416.85C2004.53 341.873 1564.49 409.884 1245.91 646.3C960.072 858.403 774.677 1186.87 662.407 1538.16C550.137 1889.44 536.562 2285.1 414.047 2568.07C348.941 2718.45 217.218 2786.41 95.7902 2885.74C-25.6544 2985.06 -169.577 3128.96 -278.534 3278.34C-394.558 3437.4 -506.59 3466.91 -586.443 3537.96C-679.192 3620.5 -784.955 3781.7 -750.227 3986.26C-690.133 4340.28 -555.692 4743.58 -522.833 5133.67C-505.401 5340.59 -482.583 5568.95 -608.785 5738.39C-732.116 5903.99 -954.396 5963.66 -1159.84 5967.55" stroke="#EAEAEA" stroke-width="1.699" stroke-miterlimit="10"/>
<path d="M2386.94 429.456C1986.08 351.285 1545.87 425.973 1233.07 668.625C956.18 883.429 780.453 1209.81 671.105 1556.37C561.757 1902.93 541.471 2294.26 408.236 2565.59C333.819 2717.14 190.899 2779.36 60.2972 2875.39C-70.3049 2971.42 -221.839 3114.05 -329.487 3269.61C-440.126 3429.47 -539.008 3470.92 -607.121 3548.24C-684.578 3636.17 -775.05 3795.89 -733.9 3994.66C-659.28 4355 -524.227 4764.57 -496.278 5163.09C-482.227 5363.52 -462.774 5584.12 -585.068 5748.21C-704.389 5908.31 -918.684 5968.5 -1117.23 5970.56" stroke="#EAEAEA" stroke-width="1.699" stroke-miterlimit="10"/>
<path d="M2367.01 442.029C1967.71 360.63 1527.21 441.893 1220.26 690.898C952.255 908.303 786.263 1232.69 679.838 1574.53C573.412 1916.37 545.888 2302.98 402.476 2563.08C318.392 2715.56 164.633 2772.28 24.873 2865.01C-114.887 2957.76 -274.185 3098.99 -380.39 3260.86C-485.762 3421.45 -571.493 3474.61 -627.747 3558.51C-690.066 3651.46 -764.788 3809.97 -717.505 4003.03C-627.747 4369.54 -492.388 4785.54 -469.672 5192.5C-458.849 5386.43 -442.913 5599.29 -561.299 5758C-676.61 5912.61 -882.971 5973.33 -1074.6 5973.55" stroke="#EAEAEA" stroke-width="1.699" stroke-miterlimit="10"/>
<path d="M2347.15 454.585C1949.4 369.923 1508.47 457.677 1207.41 713.138C948.229 933.074 792.04 1255.54 688.52 1592.66C585 1929.78 549.831 2311.22 396.666 2560.51C302.575 2713.64 138.299 2765.14 -10.6184 2854.58C-159.536 2944.03 -326.751 3083.82 -431.342 3252.04C-531.6 3413.29 -604.317 3477.99 -648.423 3568.68C-695.944 3666.39 -754.288 3823.86 -701.16 4011.32C-595.618 4383.73 -460.259 4806.42 -443.116 5221.83C-435.369 5409.23 -423.119 5614.36 -537.597 5767.72C-648.916 5916.84 -847.342 5978.07 -1032.09 5976.49" stroke="#EAEAEA" stroke-width="1.699" stroke-miterlimit="10"/>
<path d="M2327.16 467.089C1930.97 379.217 1489.62 473.358 1194.58 735.361C944.152 957.743 797.834 1278.4 697.236 1610.77C596.638 1943.16 553.484 2318.97 390.873 2557.93C286.469 2711.37 111.999 2757.97 -46.0934 2844.14C-204.185 2930.3 -379.488 3068.56 -482.278 3243.24C-577.558 3405.12 -637.498 3481.25 -669.083 3578.89C-702.196 3681.22 -743.55 3837.6 -684.799 4019.63C-562.81 4397.61 -427.757 4827.32 -416.526 5251.15C-411.735 5432.04 -403.274 5629.45 -513.845 5777.42C-621.154 5921.03 -811.629 5982.76 -989.446 5979.41" stroke="#EAEAEA" stroke-width="1.699" stroke-miterlimit="10"/>
<path d="M2307.24 479.577C1912.58 388.476 1470.67 488.921 1181.74 757.55C939.972 982.311 803.61 1301.2 705.934 1628.87C608.259 1956.53 556.915 2326.2 385.078 2555.33C270.073 2708.7 85.6974 2750.8 -81.5522 2833.68C-248.802 2916.54 -432.379 3053.22 -533.197 3234.39C-623.618 3396.86 -671.071 3484.51 -689.726 3589.05C-708.823 3696.06 -732.592 3851.14 -668.421 4027.91C-529.341 4411.08 -394.831 4848.18 -389.938 5280.46C-387.967 5454.86 -383.431 5644.5 -490.094 5787.12C-593.393 5925.25 -775.934 5987.45 -946.87 5982.37" stroke="#EAEAEA" stroke-width="1.699" stroke-miterlimit="10"/>
<path d="M2287.31 492.031C1894.2 397.685 1451.64 504.365 1168.91 779.705C935.742 1006.79 809.387 1323.96 714.634 1646.91C619.881 1969.86 560.229 2332.88 379.268 2552.68C253.406 2705.57 59.3634 2743.58 -117.044 2823.16C-293.451 2902.74 -485.506 3037.76 -584.167 3225.5C-669.848 3388.55 -705.034 3487.89 -710.42 3599.16C-715.839 3711.02 -721.497 3864.44 -652.11 4036.13C-495.309 4424.03 -361.496 4869.05 -363.416 5309.72C-364.146 5477.63 -363.654 5659.52 -466.409 5796.77C-565.699 5929.39 -740.322 5992.07 -904.344 5985.29" stroke="#EAEAEA" stroke-width="1.699" stroke-miterlimit="10"/>
<path d="M2267.37 504.45C1875.8 406.877 1432.48 519.69 1156.09 801.826C931.409 1031.17 815.18 1346.7 723.349 1664.92C631.518 1983.14 563.542 2339.03 373.491 2550.01C236.586 2702.01 33.0795 2736.34 -152.485 2812.63C-338.05 2888.91 -538.77 3022.23 -635.069 3216.58C-716.146 3380.2 -739.167 3491.5 -731.046 3609.25C-722.976 3726.26 -710.233 3877.51 -635.715 4044.33C-460.565 4436.45 -327.584 4889.94 -336.793 5338.96C-340.106 5500.41 -343.793 5674.53 -442.641 5806.39C-537.92 5933.52 -704.609 5996.62 -861.716 5988.2" stroke="#EAEAEA" stroke-width="1.699" stroke-miterlimit="10"/>
<path d="M2247.39 516.853C1857.35 416.068 1413.18 534.947 1143.26 823.947C926.975 1055.5 820.974 1369.43 732.066 1682.93C643.157 1996.43 566.923 2344.67 367.715 2547.33C219.596 2698 6.79629 2729.09 -187.943 2802.08C-382.683 2875.07 -592.254 3006.65 -685.988 3207.66C-762.562 3371.87 -773.419 3495.37 -751.688 3619.35C-730.213 3741.79 -698.866 3890.35 -619.336 4052.52C-425.242 4448.25 -293.111 4910.89 -310.203 5368.16C-315.997 5523.2 -323.948 5689.48 -418.888 5815.98C-510.159 5937.62 -668.93 6001.14 -819.105 5991.1" stroke="#EAEAEA" stroke-width="1.699" stroke-miterlimit="10"/>
<path d="M2227.51 529.256C1838.98 425.209 1393.76 550.103 1130.43 846.051C922.455 1079.78 826.767 1392.16 740.764 1700.92C654.777 2009.7 570.422 2349.84 361.904 2544.63C202.487 2693.56 -19.5219 2721.8 -223.419 2791.51C-427.316 2861.22 -645.977 2991.02 -736.942 3198.73C-809.115 3363.53 -807.739 3499.47 -772.366 3629.4C-737.485 3757.54 -687.501 3902.94 -602.993 4060.7C-389.411 4459.45 -258.044 4931.94 -283.648 5397.37C-291.821 5546.03 -304.138 5704.45 -395.171 5825.57C-482.448 5941.71 -633.303 6005.64 -776.579 5994.02" stroke="#EAEAEA" stroke-width="1.699" stroke-miterlimit="10"/>
<path d="M2247.62 541.624C1860.61 434.316 1414.21 565.155 1157.61 868.121C957.846 1103.99 872.573 1414.84 789.492 1718.88C706.41 2022.91 614.138 2354.51 396.139 2541.89C225.356 2688.69 -5.81045 2714.49 -218.865 2780.91C-431.92 2847.32 -659.858 2975.34 -747.849 3189.74C-815.741 3355.19 -801.945 3503.7 -752.997 3639.43C-704.66 3773.46 -636.038 3915.26 -546.602 4068.83C-313.041 4469.93 -182.218 4953.1 -217.03 5426.54C-227.496 5568.88 -244.282 5719.36 -331.407 5835.13C-414.692 5945.79 -557.646 6010.08 -694.025 5996.96" stroke="#EAEAEA" stroke-width="1.699" stroke-miterlimit="10"/>
<path d="M2269.56 553.976C1884.04 443.422 1436.35 580.141 1186.65 890.174C994.986 1128.15 920.23 1437.51 840.071 1736.84C759.912 2036.15 659.926 2358.77 432.226 2539.17C250.076 2683.47 9.76926 2707.2 -212.443 2770.32C-434.655 2833.44 -672.091 2959.66 -756.888 3180.78C-820.6 3346.91 -794.198 3508.08 -731.759 3649.49C-669.899 3789.57 -582.723 3927.36 -488.361 4077.01C-234.377 4479.77 -103.741 4974.45 -148.578 5455.74C-161.252 5591.83 -182.575 5734.33 -265.792 5844.73C-345.067 5949.9 -480.155 6014.53 -609.601 5999.95" stroke="#EAEAEA" stroke-width="1.699" stroke-miterlimit="10"/>
<path d="M2292.56 566.311C1908.54 452.512 1459.41 595.058 1216.76 912.227C1033.08 1152.3 968.94 1460.17 891.72 1754.78C814.484 2049.37 707.073 2362.65 469.366 2536.42C275.866 2677.86 26.4023 2699.88 -204.985 2759.7C-436.354 2819.53 -683.491 2943.96 -764.907 3171.78C-824.525 3338.64 -785.363 3512.53 -709.503 3659.48C-634.016 3805.71 -528.406 3939.15 -429.083 4085.09C-154.303 4488.84 -23.3444 4995.98 -79.0886 5484.87C-93.9039 5614.77 -119.831 5749.21 -199.14 5854.23C-274.423 5953.91 -401.61 6018.85 -524.142 6002.87" stroke="#EAEAEA" stroke-width="1.699" stroke-miterlimit="10"/>
<path d="M2316.45 578.646C1933.9 461.568 1483.09 609.89 1247.66 934.246C1071.86 1176.42 1018.47 1482.82 944.151 1772.69C869.837 2062.55 755.29 2366.15 507.304 2533.63C302.54 2671.93 43.8168 2692.51 -196.711 2749.05C-437.255 2805.59 -694.297 2928.23 -772.094 3162.76C-827.703 3330.4 -775.594 3517 -686.414 3669.47C-597.216 3821.92 -473.325 3950.7 -368.972 4093.2C-73.1085 4497.24 58.8869 5017.79 -8.7503 5513.99C-25.6214 5637.81 -56.2374 5764.08 -131.656 5863.74C-202.946 5957.95 -322.301 6023.16 -437.918 6005.85" stroke="#EAEAEA" stroke-width="1.699" stroke-miterlimit="10"/>
<path d="M-452.206 5996.06C-334.159 6005.54 -216.537 5933.54 -150.072 5835.49C-78.7314 5730.25 -57.1541 5601.35 -43.715 5474.88C7.84962 4989.17 -118.641 4482.69 -395.731 4083.09C-494.664 3940.41 -605.506 3811.67 -684.408 3662.99C-763.293 3514.31 -805.411 3334.46 -745.963 3170.39C-663.459 2942.63 -411.277 2817.96 -178.463 2757.75C53.2469 2697.83 302.524 2676.96 497.485 2537.49C736.551 2366.47 852.525 2059.34 933.669 1773.86C1014.15 1490.74 1073.92 1194.52 1250.97 957.149C1491.35 636.038 1937 478.88 2304.81 582.179" stroke="#EAEAEA" stroke-width="1.699" stroke-miterlimit="10"/>
<path d="M-476.179 5985.54C-352.407 5992.41 -231.659 5912.49 -167.98 5807.74C-100.666 5697 -88.0931 5565.55 -78.171 5436.26C-41.7274 4961.47 -163.597 4468.35 -421.964 4073.47C-515.511 3930.5 -613.271 3801.92 -681.877 3657.03C-750.465 3512.14 -782.611 3339.05 -719.306 3178.52C-632.164 2957.59 -384.824 2830.87 -159.689 2766.94C63.1518 2703.67 303.034 2682.31 488.191 2541.82C718.473 2367.1 835.653 2056.66 923.696 1775.49C1010.24 1499.15 1076.49 1213.07 1254.81 980.51C1498.11 665.379 1932.95 499.183 2284.05 583.233" stroke="#EAEAEA" stroke-width="1.699" stroke-miterlimit="10"/>
<path d="M-499.54 5975.74C-370.025 5979.97 -246.066 5892.18 -185.259 5780.64C-121.92 5664.47 -118.352 5530.55 -111.998 5398.29C-89.724 4934.83 -207.822 4454.35 -447.584 4064.52C-535.78 3921.14 -620.441 3792.83 -678.716 3651.73C-737.009 3510.61 -759.249 3344.33 -692.02 3187.32C-600.342 2973.22 -357.809 2844.48 -140.286 2776.8C73.6349 2710.23 304.189 2688.14 479.526 2546.84C701.144 2368.22 819.326 2054.69 914.368 1777.82C1006.9 1508.29 1079.15 1231.89 1259.28 1004.57C1504.72 694.84 1929.45 520.251 2263.88 585.068" stroke="#EAEAEA" stroke-width="1.699" stroke-miterlimit="10"/>
<path d="M-522.29 5966.72C-386.93 5968.38 -259.709 5872.71 -201.807 5754.28C-142.393 5632.75 -147.796 5496.44 -145.094 5361.04C-136.056 4909.23 -251.163 4440.75 -472.475 4056.28C-555.318 3912.37 -626.863 3784.46 -674.843 3647.12C-722.823 3509.79 -735.225 3350.33 -664.02 3196.82C-567.874 2989.56 -330.133 2858.86 -120.17 2787.35C84.7972 2717.55 306.058 2694.46 471.558 2552.54C684.646 2369.82 803.61 2053.46 905.72 1780.84C1004.13 1518.12 1082.89 1251.7 1264.45 1029.32C1512.55 725.422 1926.68 542.1 2244.48 587.735" stroke="#EAEAEA" stroke-width="1.699" stroke-miterlimit="10"/>
<path d="M-544.02 5958.6C-402.85 5957.63 -272.332 5854.09 -217.438 5728.74C-161.897 5601.89 -176.237 5463.25 -177.273 5324.65C-180.569 4884.75 -293.434 4427.63 -496.448 4048.91C-573.939 3904.34 -632.368 3776.95 -670.052 3643.4C-707.735 3509.86 -710.352 3357.22 -635.103 3207.2C-534.607 3006.81 -301.623 2874.16 -99.1364 2798.8C96.8433 2725.84 308.828 2701.48 464.524 2559.14C669.169 2372.06 788.744 2053.14 898.024 1784.73C1002.21 1528.86 1087.62 1272.4 1270.55 1054.94C1521.29 756.922 1924.75 564.918 2225.96 591.371" stroke="#EAEAEA" stroke-width="1.699" stroke-miterlimit="10"/>
<path d="M-564.714 5951.5C-417.649 5947.96 -283.75 5836.54 -231.948 5704.17C-180.23 5572.06 -203.439 5431.18 -208.332 5289.21C-223.096 4861.43 -334.364 4415.12 -519.3 4042.47C-591.439 3897.12 -636.752 3770.37 -664.139 3640.6C-691.527 3510.83 -684.409 3365.07 -605.065 3218.48C-500.305 3024.97 -272.027 2890.46 -76.982 2811.13C109.959 2735.1 312.65 2709.14 458.611 2566.63C654.879 2374.98 774.914 2053.73 891.448 1789.54C1001.29 1540.52 1093.46 1294.01 1277.78 1081.5C1531.17 789.338 1923.98 588.721 2208.72 596.111" stroke="#EAEAEA" stroke-width="1.699" stroke-miterlimit="10"/>
<path d="M-583.879 5945.58C-430.935 5939.4 -293.69 5820.13 -245.047 5680.78C-197.102 5543.41 -229.094 5400.34 -237.979 5254.94C-263.363 4839.47 -373.628 4403.42 -540.741 4037.2C-607.495 3890.91 -639.725 3764.97 -656.8 3638.99C-673.892 3513.01 -657.106 3374.1 -573.6 3230.97C-464.677 3044.32 -241.089 2908.03 -53.4001 2824.67C124.485 2745.69 317.865 2717.79 454.125 2575.33C642.086 2378.82 762.392 2055.55 886.283 1795.55C1001.68 1553.38 1100.75 1316.84 1286.41 1109.24C1542.42 822.996 1924.56 613.832 2192.85 602.194" stroke="#EAEAEA" stroke-width="1.699" stroke-miterlimit="10"/>
<path d="M-601.429 5940.2C-442.556 5931.41 -301.845 5804.26 -256.413 5657.84C-212.188 5515.26 -252.879 5370.03 -265.894 5221.15C-301.097 4818.08 -410.869 4391.81 -560.449 4032.42C-621.766 3885.09 -640.965 3760.06 -647.744 3637.85C-654.523 3515.66 -628.171 3383.61 -540.418 3243.94C-427.452 3064.13 -208.484 2926.17 -28.1015 2838.71C140.677 2756.85 324.679 2726.66 451.339 2584.5C631.009 2382.86 751.468 2057.83 882.835 1802.03C1003.68 1566.68 1109.75 1340.14 1296.76 1137.45C1555.4 857.112 1926.9 639.453 2178.87 608.905" stroke="#EAEAEA" stroke-width="1.699" stroke-miterlimit="10"/>
<path d="M-611.607 5934.8C-446.719 5923.48 -302.457 5788.41 -260.322 5634.87C-219.767 5487.09 -269.055 5339.75 -286.35 5187.3C-330.626 4796.72 -440.297 4379.82 -572.7 4027.58C-628.529 3879.04 -634.747 3755.08 -631.231 3636.66C-627.714 3518.24 -591.848 3393.06 -499.779 3256.85C-382.854 3083.87 -168.457 2944.38 4.65435 2852.67C164.326 2768.08 338.865 2735.22 456.028 2593.63C627.389 2386.55 747.933 2060.06 886.843 1808.47C1013.03 1579.95 1126.25 1363.41 1314.58 1165.62C1575.89 891.16 1936.86 665.057 2172.56 615.752" stroke="#EAEAEA" stroke-width="1.699" stroke-miterlimit="10"/>
<path d="M-613.323 5929.39C-442.471 5915.44 -294.675 5772.49 -255.904 5611.87C-218.985 5458.91 -276.751 5309.48 -298.464 5153.42C-351.116 4775.35 -461.007 4367.45 -576.607 4022.72C-626.864 3872.84 -620.186 3750.08 -606.374 3635.45C-592.561 3520.82 -547.248 3402.47 -450.779 3269.74C-330.014 3103.56 -120.12 2962.7 45.7708 2866.62C196.319 2779.43 361.241 2743.51 469.077 2602.73C632.062 2389.93 752.623 2062.25 899.23 1814.89C1030.65 1593.15 1151.14 1386.69 1340.77 1193.77C1604.76 925.208 1955.21 690.712 2174.75 622.752" stroke="#EAEAEA" stroke-width="1.699" stroke-miterlimit="10"/>
<path d="M-615.106 5923.97C-438.24 5907.46 -286.808 5756.57 -251.452 5588.81C-218.118 5430.67 -284.209 5279.17 -310.56 5119.5C-370.926 4753.92 -481.276 4354.71 -580.481 4017.8C-625.045 3866.45 -605.592 3745.02 -581.466 3634.16C-557.34 3523.3 -502.666 3411.78 -401.746 3282.55C-277.243 3123.14 -71.766 2981.07 86.9207 2880.5C228.345 2790.86 383.515 2751.5 482.159 2611.77C636.649 2392.92 757.244 2064.32 911.633 1821.23C1048.16 1606.23 1176.05 1409.88 1366.98 1221.84C1633.72 959.103 1973.83 716.213 2177.27 629.768" stroke="#EAEAEA" stroke-width="1.699" stroke-miterlimit="10"/>
<path d="M-616.89 5918.59C-433.992 5899.47 -278.908 5740.65 -247.034 5565.76C-217.268 5402.41 -291.497 5248.84 -322.691 5085.58C-390.175 4732.48 -501.137 4341.71 -584.405 4012.9C-623.142 3859.98 -591.048 3739.99 -556.626 3632.92C-522.204 3525.85 -458.237 3421.09 -352.78 3295.42C-224.641 3142.69 -23.48 2999.64 128.003 2894.42C260.338 2802.5 405.518 2759.26 495.157 2620.83C640.982 2395.62 761.679 2066.38 923.968 1827.6C1065.53 1619.32 1200.92 1433.14 1393.11 1249.94C1662.71 992.964 1992.57 741.665 2179.95 636.87" stroke="#EAEAEA" stroke-width="1.699" stroke-miterlimit="10"/>
<path d="M-618.64 5913.22C-429.712 5891.49 -270.957 5724.73 -242.601 5542.7C-216.368 5374.18 -298.549 5218.51 -334.805 5051.66C-408.848 4710.94 -520.489 4328.44 -588.313 4007.98C-621.036 3853.35 -576.488 3734.93 -531.77 3631.63C-487.053 3528.35 -413.877 3430.32 -303.799 3308.21C-172.109 3162.13 24.8391 3018.31 169.101 2908.26C292.381 2814.22 427.332 2766.75 508.188 2629.83C645.11 2397.97 766.028 2068.33 936.336 1833.92C1082.81 1632.28 1225.85 1456.35 1419.29 1277.99C1691.85 1026.69 2011.65 766.929 2182.98 643.904" stroke="#EAEAEA" stroke-width="1.699" stroke-miterlimit="10"/>
<path d="M-620.356 5907.85C-425.395 5883.5 -262.937 5708.79 -238.166 5519.63C-215.416 5345.92 -305.361 5188.1 -346.919 5017.71C-427.009 4689.29 -539.33 4314.95 -592.22 4003.03C-618.742 3846.62 -561.927 3729.85 -506.913 3630.34C-451.9 3530.83 -369.566 3439.47 -254.816 3321.02C-119.66 3181.51 73.1932 3037.18 210.201 2922.14C324.492 2826.17 448.91 2774.09 521.22 2638.87C648.934 2400.06 770.293 2070.23 948.688 1840.26C1100 1645.21 1250.75 1479.59 1445.44 1306.06C1721.09 1060.36 2030.97 791.989 2186.22 650.836" stroke="#EAEAEA" stroke-width="1.699" stroke-miterlimit="10"/>
<path d="M-622.157 5902.53C-421.114 5875.59 -254.867 5692.89 -233.731 5496.59C-214.465 5317.68 -311.919 5157.66 -359.033 4983.81C-444.73 4667.56 -557.646 4301.38 -596.128 3998.16C-616.21 3839.89 -547.367 3724.84 -482.057 3629.12C-416.731 3533.39 -325.341 3448.63 -205.834 3333.9C-67.2972 3200.9 121.666 3056.3 251.299 2936.08C356.705 2838.33 470.233 2781.31 534.251 2647.94C652.348 2401.91 774.439 2072.08 961.057 1846.64C1117.11 1658.12 1275.71 1502.9 1471.62 1334.17C1750.53 1093.97 2050.66 816.811 2189.74 657.581" stroke="#EAEAEA" stroke-width="1.699" stroke-miterlimit="10"/>
<path d="M-623.941 5897.21C-416.816 5867.67 -246.78 5676.97 -229.297 5473.52C-213.48 5289.41 -318.206 5127.07 -371.147 4949.87C-462.026 4645.61 -575.452 4287.68 -600.036 3993.21C-613.407 3833.05 -532.807 3719.76 -457.184 3627.81C-381.562 3535.86 -281.151 3457.64 -156.835 3346.69C-14.9855 3220.1 170.273 3075.53 292.415 2949.92C389.037 2850.57 491.317 2788.31 547.282 2656.95C655.287 2403.46 778.499 2073.78 973.408 1852.95C1134.13 1670.86 1300.65 1526.16 1497.77 1362.21C1780.08 1127.41 2070.55 841.311 2193.36 664.003" stroke="#EAEAEA" stroke-width="1.699" stroke-miterlimit="10"/>
<path d="M-625.691 5891.91C-412.483 5859.75 -238.659 5661.04 -224.863 5450.46C-212.477 5261.14 -324.203 5096.41 -383.261 4915.94C-478.965 4623.52 -592.73 4273.99 -603.944 3988.3C-610.298 3826.25 -518.246 3714.71 -432.328 3626.55C-346.409 3538.39 -237.028 3466.61 -107.853 3359.54C37.259 3239.26 219.035 3095 333.514 2963.84C421.505 2863.02 512.113 2795.28 560.313 2666.02C657.683 2404.88 782.458 2075.43 985.777 1859.34C1151.11 1683.61 1325.63 1549.51 1523.95 1390.33C1809.78 1160.91 2090.64 865.675 2197.05 670.222" stroke="#EAEAEA" stroke-width="1.699" stroke-miterlimit="10"/>
<path d="M-627.407 5886.63C-408.134 5851.82 -230.487 5645.1 -220.429 5427.41C-211.441 5232.87 -329.878 5065.57 -395.375 4882.03C-495.582 4601.22 -609.5 4260.4 -607.852 3983.39C-606.866 3819.47 -503.686 3709.67 -407.472 3625.28C-311.24 3540.9 -192.956 3475.46 -58.8707 3372.36C89.452 3258.31 268.034 3114.62 374.595 2977.72C454.108 2875.58 532.619 2802.18 573.327 2675.04C659.416 2406.12 786.331 2076.93 998.111 1865.67C1167.99 1696.21 1350.59 1572.82 1550.08 1418.39C1839.52 1194.35 2110.75 889.8 2200.63 676.134" stroke="#EAEAEA" stroke-width="1.699" stroke-miterlimit="10"/>
<path d="M-629.225 5881.38C-403.819 5843.97 -222.28 5629.18 -215.994 5404.35C-210.404 5204.6 -335.213 5034.55 -407.488 4848.1C-511.909 4578.69 -625.81 4246.91 -611.742 3978.46C-603.06 3812.76 -489.108 3704.6 -382.598 3624C-276.071 3543.4 -148.901 3484.23 -9.87141 3385.19C141.645 3277.27 317.322 3134.4 415.711 2991.6C486.95 2888.22 552.906 2809.09 586.376 2684.08C660.469 2407.31 790.171 2078.3 1010.5 1872.01C1184.88 1708.74 1375.61 1596.16 1576.28 1446.48C1869.43 1227.8 2131.01 913.757 2204.22 681.758" stroke="#EAEAEA" stroke-width="1.699" stroke-miterlimit="10"/>
<path d="M-631.009 5876.13C-399.486 5836.12 -214.057 5613.24 -211.56 5381.3C-209.351 5176.31 -340.208 5003.3 -419.602 4814.17C-528.032 4555.89 -641.679 4233.65 -615.65 3973.55C-598.898 3806.19 -474.565 3699.56 -357.725 3622.74C-240.901 3545.93 -104.879 3492.91 39.128 3398.02C193.805 3296.11 366.95 3154.28 456.827 3005.5C520.013 2900.92 572.92 2816.06 599.407 2693.14C660.741 2408.54 793.926 2079.58 1022.87 1878.38C1201.72 1721.21 1400.62 1619.56 1602.45 1474.58C1899.35 1261.3 2151.17 937.661 2207.61 687.212" stroke="#EAEAEA" stroke-width="1.699" stroke-miterlimit="10"/>
<path d="M-632.776 5870.88C-395.153 5828.23 -205.817 5597.29 -207.142 5358.24C-208.297 5148.02 -344.846 4971.78 -431.733 4780.24C-543.969 4532.8 -657.19 4220.71 -619.574 3968.63C-594.378 3799.78 -460.021 3694.49 -332.885 3621.45C-205.766 3548.41 -60.9092 3501.44 88.0932 3410.83C245.93 3314.85 416.884 3174.21 497.909 3019.36C553.246 2913.63 592.662 2823.09 612.422 2702.16C660.181 2409.83 797.613 2080.68 1035.2 1884.72C1218.51 1733.52 1425.61 1642.93 1628.58 1502.65C1929.23 1294.83 2171.24 961.481 2210.81 692.479" stroke="#EAEAEA" stroke-width="1.699" stroke-miterlimit="10"/>
<path d="M-634.509 5865.65C-390.77 5820.35 -197.543 5581.32 -202.708 5335.18C-207.227 5119.7 -349.077 4939.98 -443.83 4746.33C-559.736 4509.42 -672.329 4208.14 -623.466 3963.73C-589.452 3793.63 -445.444 3689.46 -308.012 3620.21C-170.58 3550.96 -16.9223 3509.93 137.092 3423.69C298.089 3333.54 467.242 3194.19 539.025 3033.28C586.732 2926.34 612.217 2830.31 625.47 2711.21C658.804 2411.37 801.316 2081.68 1047.59 1891.07C1235.31 1745.79 1450.66 1666.36 1654.77 1530.73C1959.2 1328.45 2191.29 985.318 2213.93 697.644" stroke="#EAEAEA" stroke-width="1.699" stroke-miterlimit="10"/>
<path d="M-636.362 5860.43C-386.473 5812.54 -189.27 5565.38 -198.291 5312.11C-206.158 5091.38 -352.951 4907.83 -455.962 4712.38C-575.453 4485.68 -687.264 4195.99 -627.391 3958.79C-584.202 3787.7 -430.902 3684.38 -283.173 3618.9C-135.445 3553.44 27.047 3518.24 186.056 3436.48C350.231 3352.08 517.973 3214.07 580.106 3047.14C620.389 2938.91 631.551 2837.69 638.483 2720.24C656.578 2413.19 804.934 2082.5 1059.92 1897.41C1252.08 1757.92 1475.67 1689.79 1680.9 1558.8C1989.1 1362.11 2211.18 1009.12 2216.84 702.673" stroke="#EAEAEA" stroke-width="1.699" stroke-miterlimit="10"/>
<path d="M-638.739 5855.21C-382.768 5804.64 -181.657 5549.39 -194.552 5289.07C-205.749 5063.07 -357.096 4875.32 -468.771 4678.47C-591.796 4461.63 -702.69 4184.33 -631.994 3953.88C-579.308 3782.13 -417.037 3679.34 -259.013 3617.65C-100.989 3555.96 70.3387 3526.5 234.36 3449.33C401.746 3370.56 568.4 3233.86 620.526 3061.04C653.605 2951.4 650.055 2845.33 650.819 2729.29C652.892 2415.45 807.875 2083.23 1071.59 1903.78C1268.18 1770.02 1500.01 1713.27 1706.39 1586.9C2018.34 1395.88 2230.31 1033.01 2218.95 707.736" stroke="#EAEAEA" stroke-width="1.699" stroke-miterlimit="10"/>
<path d="M-642.103 5850.02C-379.965 5796.82 -174.606 5533.39 -191.715 5266C-205.97 5034.72 -361.751 4842.35 -482.482 4644.54C-609.058 4437.16 -718.932 4173.22 -637.499 3948.97C-575.027 3776.91 -404.074 3674.29 -235.737 3616.39C-67.4166 3558.49 112.779 3534.67 281.762 3462.17C452.392 3388.98 618.283 3253.48 660.044 3074.94C686.073 2963.7 667.537 2853.25 662.27 2738.33C647.608 2418.2 809.913 2083.79 1082.37 1910.12C1283.41 1781.98 1523.6 1736.99 1730.96 1614.97C2046.87 1430.05 2248.46 1056.88 2220.03 712.68" stroke="#EAEAEA" stroke-width="1.699" stroke-miterlimit="10"/>
<path d="M-645.416 5844.82C-377.178 5788.97 -168.133 5517.42 -188.844 5242.94C-206.7 5006.39 -365.998 4808.94 -496.159 4610.61C-626.336 4412.29 -735.106 4162.65 -642.969 3944.04C-570.473 3772.05 -391.076 3669.23 -212.443 3615.1C-33.8098 3560.99 155.255 3542.7 329.182 3474.98C503.108 3407.26 668.455 3272.84 699.581 3088.8C718.694 2975.78 684.935 2861.42 673.739 2747.35C641.73 2421.5 811.987 2084.21 1093.17 1916.46C1298.68 1793.86 1546.94 1760.25 1755.58 1643.04C2075.01 1463.57 2266.53 1080.75 2221.05 717.607" stroke="#EAEAEA" stroke-width="1.699" stroke-miterlimit="10"/>
</svg>
