<svg width="114" height="113" viewBox="0 0 114 113" fill="none" xmlns="http://www.w3.org/2000/svg">
<g id="Frame 162">
<rect width="114" height="112.394" rx="16" fill="black" fill-opacity="0.04"/>
<rect x="0.401408" y="0.401408" width="113.197" height="111.592" rx="15.5986" stroke="white" stroke-opacity="0.12" stroke-width="0.802817"/>
<g id="fi_3358799" clip-path="url(#clip0_654_6748)">
<path id="Vector" d="M35.2294 66.4398C37 68.0238 39.008 69.2798 41.16 70.2238L52.4774 63.1171C54.8187 61.6398 57.9547 61.9891 59.9147 63.9598L63.72 67.7651C69.424 63.5598 73 56.8318 73 49.5304C73 37.0318 62.832 26.8638 50.3334 26.8638C37.8347 26.8638 27.6667 37.0318 27.6667 49.5304C27.6667 55.9811 30.4214 62.1438 35.2294 66.4398ZM51.3467 51.5304H49.32C46.2027 51.5304 43.6667 48.9944 43.6667 45.8771C43.6667 43.0744 45.688 40.7678 48.3334 40.2984V38.1971C48.3334 37.0931 49.2294 36.1971 50.3334 36.1971C51.4374 36.1971 52.3334 37.0931 52.3334 38.1971V40.1971H55C56.104 40.1971 57 41.0931 57 42.1971C57 43.3011 56.104 44.1971 55 44.1971H49.32C48.408 44.1971 47.6667 44.9384 47.6667 45.8504C47.6667 46.7891 48.408 47.5304 49.32 47.5304H51.3467C54.464 47.5304 57 50.0664 57 53.1838C57 55.9864 54.9787 58.2931 52.3334 58.7624V60.8611C52.3334 61.9651 51.4374 62.8611 50.3334 62.8611C49.2294 62.8611 48.3334 61.9651 48.3334 60.8611V58.8638H45.6667C44.5627 58.8638 43.6667 57.9678 43.6667 56.8638C43.6667 55.7598 44.5627 54.8638 45.6667 54.8638H51.3467C52.2587 54.8638 53 54.1224 53 53.2104C53 52.2718 52.2587 51.5304 51.3467 51.5304Z" fill="#014426"/>
<path id="Vector_2" d="M86.3333 56.1973H75.6667C74.5893 56.1973 73.6133 56.8479 73.2027 57.8426C72.7893 58.8399 73.0187 59.9866 73.7813 60.7493L77.2293 64.1973L66.3333 75.0933L57.552 66.3119C56.68 65.4346 55.3093 65.2826 54.264 65.9306L26.264 83.2639C25.0107 84.0399 24.6267 85.6826 25.4 86.9333C25.904 87.7493 26.776 88.1973 27.6693 88.1973C28.1493 88.1973 28.632 88.0693 29.0693 87.7973L55.272 71.5759L64.4453 80.7493C65.488 81.7919 67.1733 81.7919 68.216 80.7493L81 67.9679L84.448 71.4159C84.9573 71.9253 85.64 72.1973 86.3333 72.1973C86.6773 72.1973 87.024 72.1306 87.3547 71.9946C88.352 71.5813 89 70.6079 89 69.5306V58.8639C89 57.3919 87.808 56.1973 86.3333 56.1973Z" fill="#014426"/>
</g>
</g>
<defs>
<clipPath id="clip0_654_6748">
<rect width="64" height="64" fill="white" transform="translate(25 24.1973)"/>
</clipPath>
</defs>
</svg>
