<svg width="114" height="113" viewBox="0 0 114 113" fill="none" xmlns="http://www.w3.org/2000/svg">
<g id="Frame 162">
<rect width="114" height="112.394" rx="16" fill="black" fill-opacity="0.04"/>
<rect x="0.401408" y="0.401408" width="113.197" height="111.592" rx="15.5986" stroke="white" stroke-opacity="0.12" stroke-width="0.802817"/>
<g id="fi_8915882">
<path id="Vector" fill-rule="evenodd" clip-rule="evenodd" d="M71.9242 56.0404C80.1927 56.0404 86.8957 62.7434 86.8957 71.0119C86.8957 79.2804 80.1927 85.9834 71.9242 85.9834C63.6557 85.9834 56.9527 79.2804 56.9527 71.0119C56.9527 62.7434 63.6557 56.0404 71.9242 56.0404ZM49.8542 26.4111C56.3022 26.4111 61.5293 31.6384 61.5293 38.0863C61.5293 44.5343 56.302 49.7614 49.8542 49.7614C43.4062 49.7614 38.1789 44.5343 38.1789 38.0863C38.1789 31.6384 43.4062 26.4111 49.8542 26.4111ZM28.4803 71.6184L54.9647 71.6183C54.9575 71.4169 54.9527 71.2149 54.9527 71.0118C54.9527 64.4554 58.6709 58.768 64.1134 55.9415C60.5948 53.1749 56.2532 51.408 51.5155 51.071L54.2463 62.3233L49.8539 67.4441L45.4615 62.3233L48.1923 51.071C37.5904 51.825 28.9674 59.7361 27.1268 70.0005C26.9748 70.8486 27.6188 71.6184 28.4803 71.6184ZM74.2373 64.299V63.6756C74.2373 63.4966 74.0872 63.3465 73.9082 63.3465H69.9403C69.7613 63.3465 69.6112 63.4966 69.6112 63.6756V64.299H74.2373ZM77.851 66.299V67.5999C77.851 68.6399 77.0038 69.487 75.9639 69.487H67.8844C66.8444 69.487 65.9973 68.6398 65.9973 67.5999V66.299H63.4892V69.3731C63.4892 71.3645 70.0789 71.5856 70.7074 71.6058C71.0205 71.2989 71.4495 71.1091 71.9242 71.1091C72.3984 71.1091 72.827 71.2986 73.1402 71.6051C73.7488 71.5854 80.3592 71.3368 80.3592 69.3733V66.2991H77.851V66.299ZM67.9972 66.299V67.4871H75.851V66.299C73.2332 66.299 70.6152 66.299 67.9972 66.299ZM67.611 64.299H63.1967C62.2597 64.299 61.4892 65.0696 61.4892 66.0066V69.3731C61.4892 70.15 61.801 70.8329 62.3302 71.3885V77.1659C62.3302 78.4774 63.3997 79.5469 64.7112 79.5469H79.1372C80.4488 79.5469 81.5182 78.4775 81.5182 77.1659V71.3886C82.0474 70.833 82.3593 70.15 82.3593 69.3731V66.0066C82.3593 65.0703 81.5879 64.299 80.6517 64.299H76.2374V63.6756C76.2374 62.3926 75.1914 61.3465 73.9084 61.3465H69.9405C68.6575 61.3465 67.6114 62.3926 67.6114 63.6756V64.299H67.611ZM79.518 72.6274C78.0159 73.1686 75.8123 73.4903 73.4969 73.5906C73.2183 74.1796 72.6189 74.587 71.9242 74.587C71.2298 74.587 70.6305 74.18 70.3518 73.5915C68.0382 73.4925 65.8352 73.172 64.3303 72.6284V77.1659C64.3303 77.3734 64.5038 77.5469 64.7113 77.5469H79.1373C79.3448 77.5469 79.5183 77.3735 79.5183 77.1659V72.6274H79.518Z" fill="#024527"/>
<circle id="Ellipse 1" cx="72" cy="71" r="14" fill="#034628"/>
<g id="fi_807292" clip-path="url(#clip0_654_6758)">
<g id="Group">
<g id="Group_2">
<path id="Vector_2" d="M77.7753 65.2251C76.1418 63.5916 73.484 63.5916 71.8504 65.2252C70.7346 66.341 70.3471 67.9853 70.8302 69.4771L66.1121 74.1953C66.0407 74.2667 66.0005 74.3634 66.0005 74.4646V76.6192C66.0005 76.8297 66.1708 77 66.3813 77H68.5359C68.6371 77 68.7338 76.9598 68.8052 76.8884L69.3438 76.3495C69.426 76.2673 69.4661 76.152 69.4527 76.0363L69.3858 75.4576L70.1877 75.3821C70.3699 75.365 70.5139 75.221 70.531 75.0388L70.6065 74.2369L71.1852 74.3042C71.2927 74.3187 71.4009 74.2826 71.4824 74.2105C71.5635 74.138 71.61 74.0345 71.61 73.9259V73.2168H72.3062C72.4074 73.2168 72.5041 73.1766 72.5755 73.1052L73.5522 72.1414C75.0436 72.625 76.6595 72.2666 77.7753 71.15C79.4088 69.5165 79.4088 66.8587 77.7753 65.2251ZM76.6979 67.9183C76.2523 68.3639 75.5278 68.3639 75.0822 67.9183C74.6366 67.4727 74.6366 66.7482 75.0822 66.3026C75.5278 65.8571 76.2523 65.8571 76.6979 66.3026C77.1434 66.7482 77.1434 67.4727 76.6979 67.9183Z" fill="#F0F0F0"/>
</g>
</g>
</g>
</g>
</g>
<defs>
<clipPath id="clip0_654_6758">
<rect width="13" height="13" fill="white" transform="translate(66 64)"/>
</clipPath>
</defs>
</svg>
