<svg width="114" height="113" viewBox="0 0 114 113" fill="none" xmlns="http://www.w3.org/2000/svg">
<g id="Frame 162">
<rect width="114" height="112.394" rx="16" fill="black" fill-opacity="0.04"/>
<rect x="0.401408" y="0.401408" width="113.197" height="111.592" rx="15.5986" stroke="white" stroke-opacity="0.12" stroke-width="0.802817"/>
<g id="fi_11838816">
<path id="Vector" fill-rule="evenodd" clip-rule="evenodd" d="M31.4635 76.8415C32.4874 76.8415 33.3171 77.6706 33.3171 78.6954C33.3171 79.7186 32.4875 80.5487 31.4635 80.5487C30.4395 80.5487 29.6099 79.7185 29.6099 78.6954C29.6099 77.6706 30.4395 76.8415 31.4635 76.8415ZM41.6565 65.2521L36.4971 82.2086C36.0663 83.6144 34.5805 84.4074 33.1733 83.9827L25.7806 81.7334L31.7153 62.2277L41.6565 65.2521ZM61.2101 44.2144C60.8039 43.8076 60.8039 43.1485 61.2101 42.743C61.6164 42.3366 62.2755 42.3366 62.6818 42.743L64.4454 44.5064L70.0648 36.5892C70.3968 36.1217 71.0446 36.0126 71.5119 36.3449C71.9786 36.6771 72.0876 37.3251 71.7555 37.7921L65.4711 46.6471C65.4284 46.7179 65.3761 46.7857 65.3145 46.8471C64.9084 47.2536 64.2494 47.2536 63.843 46.8471L61.2101 44.2144ZM72.9261 35.1527C71.2633 33.4901 68.9656 32.4609 66.428 32.4609C63.8905 32.4609 61.5928 33.4901 59.9298 35.1527C58.267 36.8161 57.2384 39.113 57.2384 41.6505C57.2384 44.1891 58.267 46.4862 59.9298 48.1491C61.5929 49.8122 63.8906 50.8401 66.428 50.8401C68.9658 50.8401 71.2634 49.8121 72.9261 48.1491C74.589 46.4861 75.6175 44.189 75.6175 41.6505C75.6175 39.1129 74.589 36.816 72.9261 35.1527ZM66.428 30.3797C69.5404 30.3797 72.3583 31.6415 74.3976 33.6815C76.4373 35.7215 77.6989 38.5384 77.6989 41.6505C77.6989 44.7627 76.4373 47.5809 74.3976 49.6207C72.3583 51.6607 69.5404 52.9215 66.428 52.9215C63.3156 52.9215 60.4981 51.6607 58.4583 49.6207C56.419 47.581 55.157 44.7629 55.157 41.6505C55.157 38.5385 56.419 35.7215 58.4583 33.6815C60.498 31.6415 63.3156 30.3797 66.428 30.3797ZM63.7954 27.3034L64.7725 26.3264C65.6841 25.414 67.1718 25.414 68.0835 26.3264L69.0605 27.3034C69.6685 27.911 70.4915 28.1315 71.3219 27.9089L72.6565 27.5512C73.9023 27.2175 75.1903 27.9619 75.5239 29.2066L75.8815 30.5416C76.104 31.3715 76.7068 31.9752 77.5371 32.1972L78.8719 32.555C80.1173 32.8886 80.8613 34.1767 80.5275 35.423L80.1696 36.7565C79.9471 37.5876 80.1678 38.4101 80.7758 39.019L81.7526 39.9947C82.6646 40.9076 82.6646 42.3947 81.7526 43.3061L80.7758 44.2832C80.1678 44.8922 79.9471 45.7145 80.1696 46.5459L80.5275 47.8794C80.8611 49.1255 80.1175 50.4135 78.8719 50.7471L77.5371 51.1051C76.7068 51.3274 76.1041 51.9299 75.8815 52.7605L75.5239 54.0956C75.1903 55.3405 73.9018 56.0846 72.6565 55.7499L71.3219 55.3931C70.4914 55.17 69.6684 55.3911 69.0605 55.9986L68.0835 56.9757C67.1718 57.8872 65.6841 57.8872 64.7725 56.9757L63.7954 55.9986C63.1875 55.3912 62.3643 55.17 61.5338 55.3931L60.1995 55.7499C58.9538 56.0846 57.6656 55.3405 57.332 54.0956L56.9743 52.7605C56.7519 51.9297 56.1493 51.3274 55.3188 51.1051L53.9841 50.7471C52.7384 50.4135 51.9948 49.1254 52.3285 47.8794L52.686 46.5444C52.9086 45.7145 52.6879 44.8922 52.0801 44.2832L51.1031 43.3061C50.1914 42.3947 50.1914 40.9076 51.1031 39.9947L52.0801 39.019C52.6883 38.4102 52.9086 37.5877 52.686 36.7565L52.3285 35.423C51.9945 34.1766 52.7384 32.8886 53.9841 32.555L55.3188 32.1972C56.1493 31.9752 56.7519 31.3715 56.9743 30.5416L57.332 29.2066C57.6656 27.9619 58.9538 27.2175 60.1995 27.5512L61.5338 27.9089C62.3644 28.1315 63.1875 27.911 63.7954 27.3034ZM72.4244 57.8311V67.2125L66.3121 63.4999L60.1995 67.2125V57.8694C60.379 57.8449 60.5589 57.809 60.7384 57.7605L62.0726 57.4035C62.1838 57.3727 62.2425 57.3889 62.3239 57.4701L63.3009 58.4471C65.0249 60.1717 67.8313 60.1717 69.5551 58.4471L70.5323 57.4701C70.6138 57.3889 70.6723 57.3727 70.7834 57.4035L72.118 57.7605C72.2201 57.788 72.3221 57.8109 72.4244 57.8311ZM39.0093 81.1036H44.3151L64.1221 86.5246C65.9514 87.0252 67.7328 86.6992 69.2654 85.5824L87.6425 72.1891C89.5884 69.3976 86.219 65.9287 83.3725 67.7926L73.2875 72.4101C73.8058 73.1385 74.1113 74.0289 74.1113 74.9879C74.1113 76.2159 73.6093 77.3326 72.8013 78.1402C71.9931 78.9482 70.8768 79.4509 69.6485 79.4509H55.4885C54.9139 79.4509 54.4479 78.9841 54.4479 78.4102C54.4479 77.8356 54.914 77.3697 55.4885 77.3697H69.6485C70.3021 77.3697 70.8976 77.1009 71.3296 76.669C71.7615 76.237 72.0301 75.6412 72.0301 74.988C72.0301 73.3515 70.318 72.2207 68.8349 72.2207H63.7415C61.7429 72.2207 60.0235 71.341 58.8535 69.7215C57.6248 68.0194 55.841 66.7562 53.7655 66.1806C50.7706 65.3502 47.5584 66.0607 45.193 68.0765H42.9724L39.0093 81.1036Z" fill="#014426"/>
</g>
</g>
</svg>
