<svg width="116" height="113" viewBox="0 0 116 113" fill="none" xmlns="http://www.w3.org/2000/svg">
<g id="Frame 162">
<rect width="115.38" height="112.394" rx="16" fill="black" fill-opacity="0.04"/>
<rect x="0.401408" y="0.401408" width="114.577" height="111.592" rx="15.5986" stroke="white" stroke-opacity="0.12" stroke-width="0.802817"/>
<g id="fi_10096351" clip-path="url(#clip0_654_6780)">
<g id="Style_2_copy_3">
<g id="Group">
<path id="Vector" d="M57.6901 24.1973C40.0161 24.1973 25.6901 38.5233 25.6901 56.1973C25.6901 73.8693 40.0161 88.1973 57.6901 88.1973C75.3641 88.1973 89.6901 73.8693 89.6901 56.1973C89.6901 38.5233 75.3641 24.1973 57.6901 24.1973Z" fill="#024527"/>
</g>
<g id="Layer_x0020_1">
<path id="Vector_2" d="M38.7542 67.319C43.6582 71.577 49.0302 75.535 56.2542 75.537C56.3942 75.537 56.5362 75.535 56.6822 75.531C61.2782 75.425 66.4762 73.873 70.5122 71.339L70.5362 71.323C71.0642 71.005 71.5942 70.647 72.0902 70.247C72.4022 70.017 72.6142 69.661 72.6142 69.287C72.6022 68.621 72.0382 68.173 71.4302 68.173C71.2402 68.171 71.0422 68.215 70.8562 68.305C70.6502 68.387 70.4362 68.481 70.2382 68.567L69.9422 68.691L69.5622 68.845V68.847C65.4122 70.529 61.0522 71.517 57.0182 71.607C56.8702 71.611 56.7222 71.611 56.5742 71.611C50.2302 71.613 45.0522 68.669 39.8322 65.769C39.6482 65.673 39.4622 65.623 39.2802 65.623C39.0422 65.623 38.8042 65.711 38.6282 65.875C38.4522 66.039 38.3482 66.279 38.3502 66.523C38.3502 66.843 38.5182 67.133 38.7542 67.319Z" fill="#FEFEFE"/>
<path id="Vector_3" d="M77.0242 65.8232C77.0082 65.4192 76.9242 65.1132 76.7542 64.8592L76.7382 64.8332L76.7182 64.8072C76.5462 64.6192 76.3822 64.5512 76.2042 64.4712C75.6762 64.2672 74.9042 64.1592 73.9782 64.1572C73.3102 64.1572 72.5722 64.2212 71.8342 64.3812L71.8322 64.3332L71.0902 64.5792L71.0782 64.5872L70.6582 64.7232V64.7412C70.1642 64.9452 69.7162 65.2032 69.3002 65.5012C69.0402 65.6972 68.8242 65.9532 68.8122 66.3452C68.8062 66.5592 68.9162 66.8072 69.0962 66.9532C69.2762 67.0992 69.4842 67.1472 69.6682 67.1472C69.7142 67.1472 69.7542 67.1452 69.7922 67.1392L69.8242 67.1372L69.8542 67.1312C70.2162 67.0532 70.7482 67.0032 71.3682 66.9152C71.9002 66.8572 72.4642 66.8112 72.9522 66.8112C73.2982 66.8112 73.6102 66.8352 73.8242 66.8812C73.9322 66.9052 74.0102 66.9312 74.0562 66.9552C74.0722 66.9612 74.0842 66.9652 74.0882 66.9712C74.0982 67.0012 74.1102 67.0772 74.1082 67.1852C74.1162 67.5932 73.9402 68.3552 73.7042 69.0952C73.4722 69.8372 73.1882 70.5812 73.0022 71.0752C72.9562 71.1892 72.9322 71.3152 72.9322 71.4512C72.9262 71.6492 73.0082 71.8892 73.1802 72.0512C73.3462 72.2092 73.5642 72.2752 73.7462 72.2752H73.7542C74.0282 72.2712 74.2602 72.1612 74.4622 72.0052C76.3502 70.3052 77.0062 67.5932 77.0342 66.0692L77.0242 65.8232Z" fill="#FEFEFE"/>
<path id="Vector_4" d="M59.7602 47.6175C58.6502 47.7015 57.3682 47.7855 56.0882 47.9555C54.1242 48.2155 52.1622 48.5555 50.5402 49.3255C47.3822 50.6055 45.2462 53.3375 45.2462 57.3515C45.2462 62.3915 48.4902 64.9535 52.5902 64.9535C53.9562 64.9535 55.0662 64.7795 56.0882 64.5275C57.7122 64.0135 59.0742 63.0755 60.7002 61.3655C61.6382 62.6455 61.8942 63.2455 63.5162 64.6115C63.9422 64.7795 64.3702 64.7795 64.7102 64.5295C65.7382 63.6735 67.5282 62.1355 68.4642 61.2815C68.8942 60.9415 68.8062 60.4275 68.5482 60.0035C67.6122 58.8075 66.6722 57.7815 66.6722 55.4735V47.7875C66.6722 44.5415 66.9282 41.5515 64.5402 39.3335C62.5782 37.5415 59.5042 36.8555 57.1142 36.8555H56.0902C51.7382 37.1095 47.1282 38.9895 46.1022 44.3715C45.9302 45.0555 46.4462 45.3095 46.7862 45.3935L51.5642 45.9915C52.0782 45.9055 52.3362 45.4775 52.4182 45.0535C52.8462 43.1735 54.3822 42.2335 56.0902 42.0635H56.4342C57.4582 42.0635 58.5662 42.4915 59.1642 43.3455C59.8462 44.3715 59.7642 45.7355 59.7642 46.9335L59.7602 47.6175ZM58.8222 57.7775C58.2242 58.9695 57.2002 59.7375 56.0902 59.9995C55.9182 59.9995 55.6642 60.0815 55.4062 60.0815C53.5302 60.0815 52.4202 58.6275 52.4202 56.4955C52.4202 53.7595 54.0442 52.4795 56.0922 51.8815C57.2022 51.6275 58.4822 51.5375 59.7642 51.5375V52.5635C59.7602 54.5335 59.8442 56.0695 58.8222 57.7775Z" fill="#FEFEFE"/>
</g>
</g>
</g>
</g>
<defs>
<clipPath id="clip0_654_6780">
<rect width="64" height="64" fill="white" transform="translate(25.6901 24.1973)"/>
</clipPath>
</defs>
</svg>
