<svg width="114" height="113" viewBox="0 0 114 113" fill="none" xmlns="http://www.w3.org/2000/svg">
<g id="Frame 162">
<rect width="114" height="112.394" rx="16" fill="black" fill-opacity="0.04"/>
<rect x="0.401408" y="0.401408" width="113.197" height="111.592" rx="15.5986" stroke="white" stroke-opacity="0.12" stroke-width="0.802817"/>
<g id="fi_4415847" clip-path="url(#clip0_654_6795)">
<g id="Group">
<path id="Vector" d="M57 84.1973C59.4192 84.1973 61.508 82.7611 62.4623 80.6973H51.5377C52.492 82.7611 54.5809 84.1973 57 84.1973Z" fill="#014426"/>
<path id="Vector_2" d="M55.3594 69.7595V56.4915C51.6197 55.831 48.7969 52.9585 48.7969 49.5253C48.7969 48.6192 49.5315 47.8847 50.4375 47.8847C51.3436 47.8847 52.0782 48.6192 52.0782 49.5253C52.0782 51.1887 53.4498 52.6071 55.3594 53.1339V29.3186C54.2333 28.5974 52.9116 28.1973 51.5313 28.1973C48.0811 28.1973 45.138 30.6885 44.5386 34.0508C40.5876 35.2062 37.8595 38.8198 37.8595 42.9628C37.8595 45.1781 38.6437 47.2951 40.078 48.9784C38.6438 50.6617 37.8595 52.7787 37.8595 54.994C37.8595 59.1371 40.5876 62.7506 44.5386 63.906C45.1379 67.2682 48.0811 69.7595 51.5313 69.7595H55.3594Z" fill="#014426"/>
<path id="Vector_3" d="M48.7969 74.6816C48.7969 76.1918 50.0211 77.416 51.5312 77.416H62.4688C63.9789 77.416 65.2031 76.1918 65.2031 74.6816V73.041H48.7969V74.6816Z" fill="#014426"/>
<path id="Vector_4" d="M69.4613 34.0508C68.862 30.6886 65.9189 28.1973 62.4686 28.1973C61.0883 28.1973 59.7666 28.5974 58.6405 29.3186V41.4654C62.3802 42.1259 65.203 44.9984 65.203 48.4316C65.203 49.3377 64.4684 50.0722 63.5623 50.0722C62.6563 50.0722 61.9217 49.3377 61.9217 48.4316C61.9217 46.7682 60.5501 45.3498 58.6405 44.823V69.7596H62.4686C65.9188 69.7596 68.862 67.2684 69.4613 63.9061C73.4123 62.7507 76.1404 59.1371 76.1404 54.9941C76.1404 52.7788 75.3562 50.6618 73.922 48.9785C75.3562 47.2952 76.1404 45.1782 76.1404 42.9629C76.1405 38.8198 73.4123 35.2063 69.4613 34.0508Z" fill="#014426"/>
<g id="Group_2">
<g id="Group_3">
<path id="Vector_5" d="M80.0795 37.4947C79.5493 37.4947 79.029 37.2381 78.7128 36.7638C78.2102 36.0099 78.414 34.9913 79.1679 34.4887L82.4492 32.3012C83.203 31.7984 84.2217 32.0023 84.7243 32.7562C85.2269 33.5101 85.0231 34.5287 84.2692 35.0313L80.9879 37.2188C80.7084 37.4053 80.3922 37.4947 80.0795 37.4947Z" fill="#014426"/>
</g>
<g id="Group_4">
<path id="Vector_6" d="M83.3578 64.8382C83.045 64.8382 82.7288 64.749 82.4492 64.5625L79.1679 62.375C78.414 61.8724 78.2102 60.8538 78.7128 60.0999C79.2155 59.3459 80.2342 59.1423 80.9879 59.6449L84.2692 61.8324C85.0231 62.335 85.2269 63.3536 84.7243 64.1075C84.4082 64.5816 83.8879 64.8382 83.3578 64.8382Z" fill="#014426"/>
</g>
</g>
<g id="Group_5">
<g id="Group_6">
<path id="Vector_7" d="M33.9205 37.4945C33.6078 37.4945 33.2916 37.4053 33.0119 37.2188L29.7307 35.0313C28.9767 34.5287 28.773 33.5101 29.2756 32.7562C29.7782 32.0021 30.797 31.7985 31.5507 32.3012L34.8319 34.4887C35.5858 34.9913 35.7896 36.0099 35.287 36.7638C34.9709 37.2379 34.4506 37.4945 33.9205 37.4945Z" fill="#014426"/>
</g>
<g id="Group_7">
<path id="Vector_8" d="M30.6422 64.8379C30.1121 64.8379 29.5918 64.5813 29.2756 64.1071C28.773 63.3531 28.9767 62.3345 29.7307 61.832L33.0119 59.6445C33.7657 59.1417 34.7844 59.3455 35.287 60.0995C35.7896 60.8534 35.5858 61.872 34.8319 62.3746L31.5507 64.5621C31.2711 64.7486 30.9549 64.8379 30.6422 64.8379Z" fill="#014426"/>
</g>
</g>
<g id="Group_8">
<path id="Vector_9" d="M33.922 50.0723H30.6407C29.7347 50.0723 29.0001 49.3377 29.0001 48.4316C29.0001 47.5256 29.7347 46.791 30.6407 46.791H33.922C34.8281 46.791 35.5626 47.5256 35.5626 48.4316C35.5626 49.3377 34.8281 50.0723 33.922 50.0723Z" fill="#014426"/>
</g>
<g id="Group_9">
<path id="Vector_10" d="M83.3593 50.0723H80.078C79.1719 50.0723 78.4374 49.3377 78.4374 48.4316C78.4374 47.5256 79.1719 46.791 80.078 46.791H83.3593C84.2653 46.791 84.9999 47.5256 84.9999 48.4316C84.9999 49.3377 84.2653 50.0723 83.3593 50.0723Z" fill="#014426"/>
</g>
</g>
</g>
</g>
<defs>
<clipPath id="clip0_654_6795">
<rect width="56" height="56" fill="white" transform="translate(29 28.1973)"/>
</clipPath>
</defs>
</svg>
