<svg width="114" height="113" viewBox="0 0 114 113" fill="none" xmlns="http://www.w3.org/2000/svg">
<g id="Frame 162">
<rect width="114" height="112.394" rx="16" fill="black" fill-opacity="0.04"/>
<rect x="0.401408" y="0.401408" width="113.197" height="111.592" rx="15.5986" stroke="white" stroke-opacity="0.12" stroke-width="0.802817"/>
<g id="fi_9968832" clip-path="url(#clip0_654_6821)">
<g id="Layer_2_00000026139333350596563100000012922805070501830556_">
<g id="increase">
<path id="Vector" d="M81.3749 56.3223V83.1973C81.3749 86.0098 79.6124 88.1973 77.3624 88.1973H71.8749C69.6249 88.1973 67.8624 85.9973 67.8624 83.1973V56.3223C67.8624 53.5098 69.6249 51.3223 71.8749 51.3223H77.3624C79.5999 51.3223 81.3749 53.5223 81.3749 56.3223Z" fill="#034628"/>
<path id="Vector_2" d="M81.4625 40.5598C81.0875 40.8223 80.6 40.8348 80.2 40.5973L76.45 38.3473C70.275 48.5723 61.5625 58.1973 44.7375 58.1973C41.1875 58.1973 37.275 57.7723 32.95 56.8223C32.325 56.6848 31.925 56.0723 32.05 55.4348C32.175 54.8598 32.7 54.4723 33.2875 54.5223C34.3375 54.6098 58.7375 56.2473 68.9875 33.6848L65.15 31.8223C64.575 31.5473 64.325 30.8473 64.6 30.2723C64.725 30.0098 64.9375 29.8098 65.2 29.6973L77.9375 24.2848C78.525 24.0348 79.2125 24.3098 79.4625 24.8973C79.5 24.9848 79.525 25.0723 79.5375 25.1598L81.95 39.3973C82.0375 39.8473 81.8375 40.3098 81.4625 40.5598Z" fill="#034628"/>
<path id="Vector_3" d="M63.7624 66.1973V83.1973C63.7624 86.0098 61.9999 88.1973 59.7499 88.1973H54.2499C51.9999 88.1973 50.2374 85.9973 50.2374 83.1973V66.1973C50.2374 63.3848 51.9999 61.1973 54.2499 61.1973H59.7374C61.9999 61.1848 63.7624 63.3848 63.7624 66.1973Z" fill="#034628"/>
<path id="Vector_4" d="M46.5375 74.4224V83.1974C46.5375 85.9974 44.775 88.1974 42.525 88.1974H37.025C34.775 88.1974 33.0125 85.9974 33.0125 83.1974V74.4224C33.0125 71.6099 34.775 69.4224 37.025 69.4224H42.5125C44.775 69.4099 46.5375 71.6099 46.5375 74.4224Z" fill="#034628"/>
</g>
</g>
</g>
</g>
<defs>
<clipPath id="clip0_654_6821">
<rect width="64" height="64" fill="white" transform="translate(25 24.1973)"/>
</clipPath>
</defs>
</svg>
