<svg width="16" height="16" viewBox="0 0 16 16" fill="none" xmlns="http://www.w3.org/2000/svg">
<path d="M11.2862 0H4.15808C3.05565 0.00117928 1.99871 0.43964 1.21918 1.21918C0.43964 1.99871 0.00117928 3.05565 0 4.15808V11.2862C0.00117928 12.3886 0.43964 13.4456 1.21918 14.2251C1.99871 15.0047 3.05565 15.4431 4.15808 15.4443H11.2862C12.3886 15.4431 13.4456 15.0047 14.2251 14.2251C15.0047 13.4456 15.4431 12.3886 15.4443 11.2862V4.15808C15.4431 3.05565 15.0047 1.99871 14.2251 1.21918C13.4456 0.43964 12.3886 0.00117928 11.2862 0ZM7.72215 11.2862C7.01724 11.2862 6.32816 11.0772 5.74206 10.6856C5.15595 10.2939 4.69913 9.7373 4.42938 9.08605C4.15962 8.43481 4.08904 7.71819 4.22656 7.02683C4.36408 6.33547 4.70353 5.70041 5.20197 5.20197C5.70041 4.70353 6.33547 4.36408 7.02683 4.22656C7.71819 4.08904 8.43481 4.15962 9.08605 4.42938C9.7373 4.69913 10.2939 5.15595 10.6856 5.74206C11.0772 6.32816 11.2862 7.01724 11.2862 7.72215C11.2852 8.66709 10.9094 9.57306 10.2412 10.2412C9.57306 10.9094 8.66709 11.2852 7.72215 11.2862ZM12.1772 4.15808C12.001 4.15808 11.8287 4.10582 11.6822 4.00792C11.5357 3.91001 11.4215 3.77085 11.354 3.60804C11.2866 3.44523 11.269 3.26607 11.3033 3.09323C11.3377 2.92039 11.4226 2.76163 11.5472 2.63702C11.6718 2.51241 11.8306 2.42755 12.0034 2.39317C12.1762 2.35879 12.3554 2.37643 12.5182 2.44387C12.681 2.51131 12.8202 2.62551 12.9181 2.77204C13.016 2.91857 13.0682 3.09084 13.0682 3.26706C13.0682 3.50337 12.9744 3.73001 12.8073 3.89711C12.6402 4.0642 12.4135 4.15808 12.1772 4.15808ZM10.0982 7.72215C10.0982 8.19208 9.95884 8.65147 9.69775 9.0422C9.43667 9.43294 9.06558 9.73749 8.63142 9.91733C8.19725 10.0972 7.71951 10.1442 7.2586 10.0525C6.79769 9.96086 6.37432 9.73456 6.04203 9.40226C5.70973 9.06997 5.48344 8.6466 5.39176 8.18569C5.30008 7.72478 5.34713 7.24704 5.52697 6.81287C5.7068 6.37871 6.01135 6.00762 6.40209 5.74654C6.79282 5.48545 7.25221 5.3461 7.72215 5.3461C8.35231 5.3461 8.95667 5.59643 9.40226 6.04203C9.84786 6.48762 10.0982 7.09198 10.0982 7.72215Z" fill="white"/>
</svg>
