<svg width="16" height="16" viewBox="0 0 16 16" fill="none" xmlns="http://www.w3.org/2000/svg">
<path d="M14.2563 0H1.18802C0.872939 0 0.570761 0.125166 0.347964 0.347964C0.125166 0.570761 0 0.872939 0 1.18802V14.2563C0 14.5714 0.125166 14.8735 0.347964 15.0963C0.570761 15.3191 0.872939 15.4443 1.18802 15.4443H14.2563C14.5714 15.4443 14.8735 15.3191 15.0963 15.0963C15.3191 14.8735 15.4443 14.5714 15.4443 14.2563V1.18802C15.4443 0.872939 15.3191 0.570761 15.0963 0.347964C14.8735 0.125166 14.5714 0 14.2563 0ZM5.3461 11.2862C5.3461 11.4438 5.28352 11.5948 5.17212 11.7062C5.06072 11.8176 4.90963 11.8802 4.75209 11.8802C4.59455 11.8802 4.44346 11.8176 4.33206 11.7062C4.22066 11.5948 4.15808 11.4438 4.15808 11.2862V6.53412C4.15808 6.37658 4.22066 6.22549 4.33206 6.11409C4.44346 6.0027 4.59455 5.94011 4.75209 5.94011C4.90963 5.94011 5.06072 6.0027 5.17212 6.11409C5.28352 6.22549 5.3461 6.37658 5.3461 6.53412V11.2862ZM4.75209 5.3461C4.57586 5.3461 4.40359 5.29384 4.25707 5.19594C4.11054 5.09803 3.99634 4.95887 3.9289 4.79606C3.86146 4.63325 3.84381 4.4541 3.87819 4.28125C3.91257 4.10841 3.99743 3.94965 4.12205 3.82504C4.24666 3.70043 4.40542 3.61557 4.57826 3.58119C4.7511 3.54681 4.93025 3.56445 5.09307 3.63189C5.25588 3.69933 5.39504 3.81353 5.49294 3.96006C5.59085 4.10659 5.64311 4.27886 5.64311 4.45508C5.64311 4.6914 5.54923 4.91803 5.38213 5.08513C5.21504 5.25223 4.9884 5.3461 4.75209 5.3461ZM11.8802 11.2862C11.8802 11.4438 11.8176 11.5948 11.7062 11.7062C11.5948 11.8176 11.4438 11.8802 11.2862 11.8802C11.1287 11.8802 10.9776 11.8176 10.8662 11.7062C10.7548 11.5948 10.6922 11.4438 10.6922 11.2862V8.61316C10.6922 8.21931 10.5357 7.84159 10.2572 7.56309C9.97875 7.28459 9.60103 7.12813 9.20717 7.12813C8.81332 7.12813 8.4356 7.28459 8.1571 7.56309C7.8786 7.84159 7.72215 8.21931 7.72215 8.61316V11.2862C7.72215 11.4438 7.65956 11.5948 7.54816 11.7062C7.43676 11.8176 7.28568 11.8802 7.12813 11.8802C6.97059 11.8802 6.8195 11.8176 6.70811 11.7062C6.59671 11.5948 6.53412 11.4438 6.53412 11.2862V6.53412C6.53486 6.38862 6.58897 6.24846 6.6862 6.14021C6.78343 6.03196 6.917 5.96316 7.06159 5.94686C7.20617 5.93056 7.35171 5.9679 7.4706 6.05178C7.58948 6.13567 7.67344 6.26027 7.70655 6.40196C8.10839 6.12936 8.57689 5.97137 9.06175 5.94495C9.54661 5.91854 10.0295 6.02469 10.4586 6.25201C10.8877 6.47934 11.2467 6.81924 11.4972 7.23524C11.7476 7.65123 11.8801 8.12759 11.8802 8.61316V11.2862Z" fill="white"/>
</svg>
